<?xml version="1.0" encoding="utf-8"?>
<!-- Generator: Adobe Illustrator 27.5.0, SVG Export Plug-In . SVG Version: 6.00 Build 0)  -->
<svg version="1.1" id="Capa_1" xmlns="http://www.w3.org/2000/svg" xmlns:xlink="http://www.w3.org/1999/xlink" x="0px" y="0px"
	 viewBox="0 0 2122 2122" style="enable-background:new 0 0 2122 2122;" xml:space="preserve">
<path style="fill:#E3C471;" d="M1138.393,917.569c-4.963-1.554-9.691-3.069-14.266-4.536c-13.272-4.258-24.733-7.932-35.23-10.378
	c-0.921-0.214-1.834-0.419-2.736-0.614l-0.285,0.151c-7.944,20.307-16.704,41.505-26.041,63.006l0.015,0.248
	c2.273,3.493,4.426,7.084,6.507,10.553c6.938,11.781,14.597,23.347,22.002,34.529c3.479,5.257,7.077,10.69,10.558,16.083
	c9.625,14.924,19.637,31.104,32.46,52.453l-0.249,0.48l0.506,0.138c2.047-4.011,4.149-7.978,6.181-12l0.723-1.437l0.027-0.112
	V917.807L1138.393,917.569z"/>
<path style="fill:#E3C471;" d="M1095.716,1146.96c-0.793,1.47-1.575,2.974-2.368,4.44c-9.094-18.499-18.933-38.28-29.318-57.705
	c-10.977-20.482-22.848-40.584-35.281-59.747l-0.209-0.131l-0.197,0.117l-0.051,0.141c-24.899,51.824-51.915,102.144-80.295,149.564
	c-0.926,1.557-1.863,3.12-2.796,4.679l0.286,0.506c0.905-1.508,1.815-3.017,2.712-4.523c4.938,11.225,10.07,22.582,15.036,33.574
	c13.315,29.461,27.084,59.927,38.419,90.855l0.256,0.429l0.214,0.122l0.229-0.146c9.223-20.789,19.902-42.207,35.498-58.06
	c19.806-33.706,39.257-68.448,58.292-103.754L1095.716,1146.96z"/>
<path style="fill:#E3C471;" d="M1001.251,1311.049l-0.329,0.088c-5.026,8.137-10.205,16.429-15.401,24.663
	c-15.576-41.189-32.507-84.804-53.07-125.827l-0.212-0.137l-0.224,0.117c-27.43,44.049-56.155,85.661-85.381,123.673
	c-13.91-18.046-27.472-36.604-40.307-55.157l-0.248-0.102l-0.198,0.18c-12.022,45.734-25.466,99.966-34.032,155.43l0.041,0.18
	l3.484,4.979l0.205,0.107l0.066-0.01c58.248-15.912,109.23-23.649,155.829-23.649h0.56c-0.005,0.253,0.046,0.682,0.198,1.447
	l0.156,0.185l0.239-0.034l0.27-0.205l0.053-0.054c23.009-33.759,45.915-69.023,68.078-104.809l0.017-0.029l0.316-0.716
	L1001.251,1311.049z"/>
<path style="fill:#E3C471;" d="M641.512,983.703c-12.543-28.063-24.058-55.489-34.221-81.51l-0.283-0.151l-0.494,0.102
	c-0.646,0.141-1.301,0.278-1.964,0.414c-18.131,3.825-37.4,8.234-56.127,16.341c-22.699,9.827-38.875,22.709-49.469,39.401
	l-0.034,0.263c20.27,43.839,42.446,88.779,65.91,133.573l0.215,0.132h0.007l0.215-0.122c21.299-35.635,46.226-71.021,76.214-108.185
	L641.512,983.703z"/>
<path style="fill:#E3C471;" d="M658.774,1021.315l-0.205-0.141l-0.225,0.102c-25.992,36.39-48.577,76.794-67.13,120.087l0.01,0.219
	c23.885,43.732,49.05,87.449,74.792,129.924l0.215,0.117h0.036l0.205-0.185c11.798-45.622,28.075-92.809,48.382-140.258l0.019-0.097
	v-0.049l-0.029-0.122C695.488,1095.946,676.623,1059.069,658.774,1021.315z"/>
<path style="fill:#F7B7A1;" d="M1097.012,495.686c-12.203-17.805-32.704-22.3-50.23-12.806c-0.799,3.195-1.641,6.409-2.53,9.638
	c0,0,0.509-29.208-4.37-63.147c-11.123-12.573-26.126-21.255-41.604-29.607c8.33,20.253,13.776,41.705,16.101,63.478
	c1.274,2.557,1.697,4.133,1.697,4.133c-0.456-0.282-0.912-0.557-1.37-0.83c1.564,16.971,1.23,34.11-1.116,51.002
	c-16.752-25.142-37.729-47.436-61.696-65.826c-19.172,0.636-32.767,4.917-32.767,4.917c-6.657-10.975-4.623-21.403-2.124-27.733
	c-5.273-2.903-10.641-5.633-16.097-8.178c-1.049-0.489-2.1-0.97-3.155-1.446c-9.039,1.753-17.787,3.219-26.214,4.445
	c4.855,7.702,9.357,15.626,13.475,23.747c-12.047-9.313-25.747-15.941-40.178-20.865c-21.691-2.237-46.105-6.032-72.572-12.32
	c-18.386-0.268-36.773,0.082-54.328-5.343c-22.627-6.993-37.369-17.822-45.534-28.306c-2.315-1.021-4.602-2.049-6.866-3.082
	c-17.774,48.868-16.621,114.962-16.621,114.962c-0.889-3.229-1.732-6.443-2.531-9.639c-17.527-9.494-38.027-4.999-50.229,12.807
	c-15.078,22.001-11.776,55.988,7.375,75.914c12.642,13.153,29.028,16.887,43.045,11.581c0.265,1.877,0.552,3.756,0.864,5.636
	c7.27,43.778,27.737,76.08,58.321,105.647l-26.19,116.355l-6.008,26.694c57.825,130.018,153.03,161.27,153.03,161.27
	c-0.307,0.701-0.625,1.405-0.951,2.111h41.874c-0.326-0.706-0.644-1.41-0.951-2.111c0,0,95.205-31.252,153.03-161.27l-6.97-30.965
	l-25.226-112.072c30.591-29.57,51.062-61.875,58.333-105.659c0.312-1.879,0.599-3.758,0.864-5.636
	c14.016,5.307,30.403,1.572,43.045-11.581C1108.788,551.674,1112.09,517.687,1097.012,495.686z"/>
<path style="fill:#E9CF8F;" d="M658.547,1021.424c-6.137-13.021-11.925-25.594-17.263-37.617
	c-27.738,34.374-53.632,70.395-76.232,108.212c8.481,16.264,17.313,32.728,26.392,49.441
	C609.555,1099.203,631.855,1058.792,658.547,1021.424z"/>
<path style="fill:#E9CF8F;" d="M591.444,1141.71l-0.219-0.132c-10.39-19.128-18.777-34.84-26.395-49.442l0.008-0.243
	c21.311-35.659,46.253-71.064,76.253-108.244l0.227-0.092l0.197,0.146c5.104,11.503,10.75,23.805,17.26,37.612l-0.025,0.253
	c-25.971,36.361-48.538,76.731-67.076,119.99L591.444,1141.71z M565.337,1092.029c7.539,14.451,15.834,29.993,26.08,48.863
	c18.494-43.069,40.982-83.269,66.843-119.493c-6.414-13.612-11.991-25.759-17.038-37.12
	C611.385,1021.286,586.56,1056.536,565.337,1092.029z"/>
<path style="fill:#E9CF8F;" d="M1001.134,1311.268c0.328-0.746,0.657-1.491,0.988-2.238l-0.255-0.426
	c-15.594-42.568-35.416-83.382-53.633-124.847c-1.677,2.815-3.368,5.634-5.07,8.455c-3.582,5.936-7.222,11.887-10.94,17.864
	l0.005,0.009c20.446,40.789,37.068,83.503,53.237,126.271C990.76,1327.964,995.975,1319.619,1001.134,1311.268z"/>
<path style="fill:#E9CF8F;" d="M985.465,1336.604h-0.024l-0.21-0.161c-15.62-41.311-32.596-85.087-53.227-126.246l0.007-0.254
	c3.539-5.685,7.22-11.698,10.938-17.856c1.703-2.821,3.394-5.642,5.07-8.458l0.229-0.122l0.214,0.146
	c4.994,11.371,10.198,22.884,15.228,34.017c13.318,29.472,27.089,59.947,38.412,90.845l0.237,0.39l0.014,0.229
	c-0.331,0.746-0.663,1.491-0.989,2.237l-0.017,0.029c-5.113,8.273-10.385,16.716-15.669,25.086L985.465,1336.604z M932.508,1210.09
	c20.538,40.994,37.454,84.565,53.013,125.71c5.191-8.229,10.368-16.517,15.391-24.648c0.307-0.702,0.619-1.403,0.93-2.104
	l-0.19-0.317c-11.335-30.928-25.103-61.394-38.419-90.855c-4.965-10.992-10.098-22.348-15.036-33.574
	c-1.595,2.675-3.203,5.359-4.821,8.039C939.682,1198.465,936.026,1204.433,932.508,1210.09z M1001.134,1311.269h0.007H1001.134z"/>
<path style="fill:#D3B061;" d="M714.844,1130.962l-0.219-0.127l-0.229,0.151c-20.317,47.469-36.604,94.685-48.407,140.327
	l0.026,0.195c34.122,56.219,69.742,110.947,105.876,162.65l0.205,0.107l0.056-0.005l0.19-0.204
	c8.563-55.445,22.005-109.661,34.022-155.381l-0.036-0.205C774.635,1233.067,743.855,1183.439,714.844,1130.962z"/>
<path style="fill:#D3B061;" d="M1131.877,1078.928c-12.86-21.413-22.897-37.632-32.541-52.589
	c-3.481-5.394-7.082-10.826-10.56-16.083c-7.403-11.181-15.057-22.743-21.99-34.509c-2.085-3.478-4.239-7.07-6.512-10.563
	l-0.034-0.058l-0.229-0.097l-0.2,0.151c-3.214,7.376-6.478,14.748-9.701,21.914c-1.461,3.25-2.953,6.544-4.47,9.871
	c-5.651,12.39-11.483,24.843-17.332,37.004l0.013,0.239l0.015,0.019c12.424,19.147,24.288,39.235,35.257,59.703
	c10.46,19.572,20.373,39.503,29.523,58.129l0.219,0.136h0.005l0.219-0.131c12.96-23.942,25.854-48.463,38.327-72.897
	L1131.877,1078.928z"/>
<ellipse style="fill:#F18C77;" cx="960.425" cy="575.615" rx="63.827" ry="36.053"/>
<ellipse style="fill:#F18C77;" cx="732.742" cy="575.615" rx="63.827" ry="36.053"/>
<polygon style="fill:#AFDFF9;" points="1781.243,1272.16 1781.014,1272.131 1393.779,1419.425 1393.618,1419.663 1393.789,1419.897 
	1577.655,1479.956 1577.733,1479.966 1781.101,1479.966 1781.35,1479.717 1781.35,1272.365 "/>
<polygon style="fill:#AFDFF9;" points="1735.423,618.885 1735.177,618.675 1138.318,618.675 1138.069,618.923 1138.069,813.886 
	1138.171,814.085 1138.318,814.134 1138.395,814.124 1735.255,619.162 "/>
<path style="fill:#D2ECFC;" d="M1725.698,672.141c15.898-16.604,36.624-28.205,55.44-31.02l0.212-0.248v-21.949l-0.249-0.248
	h-45.924l-0.078,0.01l-195.686,63.922l-0.171,0.234l0.161,0.239l186.623,70.982l0.088,0.015l0.227-0.141
	c10.913-23.294,21.656-40.624,33.808-54.534c6.3-7.216,12.975-11.338,21.001-12.974l0.2-0.244v-2.012l-0.1-0.2l-0.222-0.039
	c-2.501,0.76-5.374,2.163-9.035,4.414c-3.608,2.227-7.255,4.609-10.782,6.913c-6.855,4.473-13.947,9.101-21.243,12.926
	c-8.726,4.561-21.181,9.345-28.626-1.72c-7.639-11.337,5.981-25.569,14.117-34.071L1725.698,672.141z"/>
<path style="fill:#D2ECFC;" d="M1577.81,1479.478l-389.919-127.362l-0.302,0.127c-0.312,0.633-0.621,1.257-0.933,1.866
	c-0.631,1.228-1.391,2.753-2.271,4.512c-9.062,18.154-30.282,60.653-46.005,56.463l-0.214,0.039l-0.097,0.2v64.395l0.249,0.248
	h439.415l0.246-0.21L1577.81,1479.478z"/>
<path style="fill:#E4F4FE;" d="M826.666,998.543c-0.239-0.078-24.132-8.083-54.775-31.854
	c-28.273-21.929-68.229-62.144-98.07-129.203l5.99-26.616l-0.076-0.239l-0.246-0.053c-11.435,3.703-14.283,6.626-14.392,6.743
	c-0.322,0.317-32.11,32.468-28.661,75.342l0.013,0.083c9.827,28.824,63.985,180.268,165.398,331.279l0.207,0.107l0.061-0.005
	l0.188-0.219l15.871-153.417l-0.071-0.19l-0.034-0.029l-20.736-25.135c13.065-16.594,22.663-31.444,28.531-44.141
	c0.326-0.707,0.648-1.408,0.952-2.115l-0.003-0.199L826.666,998.543z"/>
<path style="fill:#E4F4FE;" d="M1012.737,806.324l-0.265,0.02l-0.092,0.253l6.952,30.889c-29.841,67.06-69.8,107.274-98.07,129.203
	c-30.646,23.771-54.539,31.776-54.777,31.854l-0.149,0.136l-0.003,0.204c0.307,0.702,0.626,1.403,0.952,2.11
	c5.861,12.677,15.462,27.532,28.536,44.146l-20.763,25.165l-0.015,0.268l0.005,0.01l15.871,153.257l0.188,0.219l0.061,0.005
	l0.207-0.107c101.289-150.923,155.489-302.382,165.325-331.21l0.013-0.083c3.447-42.879-28.339-75.026-28.658-75.342
	C1024.018,813.213,1018.864,809.515,1012.737,806.324z"/>
<path style="fill:#E4F4FE;" d="M1781.169,814.402l-0.28,0.107l-0.86,1.383c-2.144,3.449-4.168,6.709-5.951,9.408
	c-0.916,1.378-1.966,3.152-3.077,5.032c-5.944,10.056-14.911,25.252-26.451,20.215c-5.71-2.5-7.379-7.995-5.254-17.296l-0.047-0.204
	l-0.19-0.097c-1.396-0.044-2.818-0.38-4.227-0.994c-9.819-4.292-5.615-17.135-2.543-26.509c0.69-2.11,1.342-4.097,1.776-5.798
	c0.531-2.076,1.075-4.151,1.632-6.232l-0.11-0.273l-0.295,0.02c-7.184,6.212-13.269,7.546-18.607,4.068
	c-8.996-5.847-2.733-17.842,1.839-26.597c1.021-1.959,1.985-3.805,2.692-5.403c1.723-3.922,3.448-7.722,5.123-11.298l0.005-0.2
	l-0.144-0.141l-186.624-70.982l-0.166-0.005l-401.174,131.04l-0.171,0.239v407.653l0.227,0.248
	c7.089,0.658,13.937,1.818,20.348,3.449c28.962,7.377,44.271,34.5,55.425,60.058c5.849,13.438,6.17,24.604,6.578,38.748
	c0.053,1.827,0.107,3.708,0.175,5.647c0.307,8.921-1.515,22.139-6.526,23.581c-2.958,0.838-6.731-2.582-10.977-9.905
	c-1.788-3.084-2.584-6.387-3.354-9.583c-0.604-2.505-1.228-5.091-2.322-7.605l-0.229-0.151h-0.025l-0.219,0.195
	c-2.304,10.139-6.482,19.747-9.581,26.022l-0.005,0.21l0.151,0.141l206.054,67.303l0.078,0.01l0.088-0.015l387.234-147.293
	l0.161-0.234V814.641L1781.169,814.402z"/>
<path style="fill:#FAB956;" d="M1130.094,391.733c-0.673-1.72-1.301-3.506-1.91-5.233l-0.234-0.662
	c-1.432-4.051-2.916-8.424-4.814-14.178l-0.723-2.195c-2.821-8.543-5.737-17.376-8.273-26.146
	c-1.861-6.443-3.668-13.028-5.418-19.398c-3.386-12.326-6.887-25.074-10.943-37.411c-6.587-20.046-13.503-32.414-20.558-36.767
	c0.166-1.145-0.451-2.08-0.704-2.412c1.467-3.123,1.73-6.701,0.736-10.095c-1.506-5.152-5.715-8.792-10.507-9.106
	c-0.246-0.526-0.56-1.009-0.925-1.425c0.022-0.777-0.098-1.544-0.353-2.285c-0.278-0.794-0.719-1.515-1.311-2.151
	c0-0.733-0.115-1.435-0.341-2.088c-0.312-0.887-0.821-1.673-1.515-2.336c-0.024-0.67-0.129-1.265-0.322-1.817
	c-0.348-0.999-0.955-1.885-1.759-2.568l-0.134-0.882l-0.161-0.587c-0.397-1.13-1.104-2.092-2.048-2.789l-0.258-1.091
	c-0.443-1.269-1.272-2.304-2.397-3.001l-0.171-0.692c-0.47-1.347-1.388-2.451-2.597-3.12l-0.112-0.455
	c-0.529-1.513-1.644-2.719-3.074-3.326c-0.692-1.91-2.292-3.266-4.212-3.569c-1.067-1.683-2.96-2.636-4.853-2.448
	c-1.242-1.23-2.948-1.744-4.614-1.381c-1.323-1.069-3.035-1.403-4.614-0.892c-1.371-0.925-3.072-1.113-4.592-0.497
	c-1.321-0.77-2.86-0.891-4.266-0.326l-0.193,0.102c-1.274-0.679-2.738-0.772-4.076-0.236l-0.299,0.159
	c-1.262-0.646-2.658-0.716-3.971-0.19l-0.317,0.168c-1.24-0.636-2.66-0.714-3.951-0.198l-0.249,0.132
	c-1.255-0.687-2.709-0.787-4.02-0.256l-0.102,0.054c-1.281-0.775-2.777-0.907-4.156-0.353l-0.129,0.065
	c-1.269-0.777-2.762-0.915-4.138-0.36l-0.207,0.11c-1.254-0.748-2.719-0.87-4.058-0.332l-0.283,0.149
	c-1.232-0.718-2.665-0.833-3.983-0.307l-0.351,0.188c-1.213-0.697-2.626-0.801-3.917-0.285l-0.417,0.219
	c-1.193-0.674-2.584-0.772-3.851-0.268l-0.473,0.251c-1.184-0.658-2.55-0.753-3.795-0.253l-0.526,0.278
	c-1.164-0.636-2.511-0.726-3.744-0.239l-0.57,0.302c-1.15-0.626-2.48-0.711-3.698-0.229l-0.614,0.324
	c-1.14-0.619-2.453-0.709-3.656-0.224l-0.648,0.341c-1.128-0.612-2.429-0.694-3.625-0.219l-0.673,0.363
	c-1.118-0.612-2.409-0.695-3.598-0.227l-0.689,0.38c-1.113-0.614-2.402-0.699-3.583-0.233l-0.702,0.39
	c-1.101-0.619-2.387-0.714-3.569-0.239l-0.711,0.397c-1.101-0.626-2.385-0.721-3.559-0.251l-0.716,0.402
	c-1.096-0.638-2.37-0.74-3.559-0.265l-0.711,0.404c-1.091-0.65-2.368-0.765-3.559-0.285l-0.707,0.405
	c-1.089-0.663-2.37-0.777-3.564-0.305l-0.699,0.4c-1.089-0.682-2.37-0.816-3.574-0.329l-0.682,0.39
	c-1.074-0.695-2.397-0.831-3.586-0.351l-0.665,0.375c-1.072-0.716-2.397-0.865-3.606-0.38l-0.641,0.361
	c-1.067-0.736-2.404-0.902-3.627-0.409l-0.626,0.351c-1.062-0.775-2.405-0.957-3.644-0.451l-0.597,0.331
	c-1.07-0.811-2.427-1.006-3.666-0.504l-0.565,0.309c-1.055-0.836-2.448-1.055-3.698-0.56l-0.521,0.28
	c-1.055-0.891-2.465-1.128-3.732-0.621l-0.475,0.251c-1.048-0.928-2.461-1.201-3.771-0.682l-0.419,0.221
	c-1.033-0.974-2.492-1.274-3.817-0.748l-0.361,0.19c-1.023-1.033-2.514-1.359-3.864-0.816l-0.312,0.166
	c-1.021-1.096-2.519-1.447-3.895-0.894l-0.268,0.144c-0.994-1.128-2.533-1.518-3.922-0.969l-0.227,0.119
	c-0.979-1.193-2.529-1.62-3.944-1.047l-0.188,0.1c-0.356-0.458-0.811-0.823-1.328-1.062l-0.238,0.017l-0.115,0.21v0.302
	c0,1.245-3.459,2.87-11.186,3.695l-0.105,0.036l-0.164,0.1l-0.39-0.061l-0.063-0.003l-0.986,0.088l-0.102,0.032l-0.517,0.287
	l-0.928-0.195l-0.063-0.005l-0.158,0.01l-0.095,0.024l-0.843,0.402l-1.013-0.258l-0.159,0.012l-0.931,0.4l-0.999-0.309l-0.161,0.005
	l-0.972,0.36l-0.972-0.341h-0.178l-0.969,0.329l-0.957-0.38l-0.159-0.01l-1.001,0.277l-0.918-0.409l-0.159-0.014l-1.028,0.236
	l-0.716-0.363l-0.097-0.027l-0.463-0.034l-0.063,0.003l-0.745,0.134l-0.363-0.214l-0.102-0.034
	c-0.489-0.046-0.964-0.097-1.488-0.151l-0.073,0.01l-0.105-0.039c-3.447-0.412-6.243-1.026-8.087-1.771l-0.263,0.049l-0.066,0.263
	l0.212,0.631l0.076,0.109c0.331,0.28,0.796,0.441,1.332,0.395l0.585,0.782l0.181,0.1l1.201,0.092l0.762,0.714l0.178,0.066
	l1.108-0.029l0.996,0.67l0.085,0.007l1.145-0.117l0.899,0.57l0.173,0.034l1.074-0.168l1.087,0.529l0.083-0.005l1.062-0.217
	l1.106,0.478l1.172-0.236l1.101,0.395l1.145-0.282l1.142,0.348l0.083-0.012l0.974-0.346l1.123,0.339l0.058-0.003l1.114-0.37
	l1.157,0.258l1.13-0.453l1.038,0.246l0.088,0.005l1.057-0.472l1.201,0.158l1.052-0.56l1.092,0.139l0.085-0.004l1.021-0.634
	l1.113,0.068l0.176-0.058l0.397-0.336c0.909,0.575,2.017,0.68,3.025,0.273l0.088-0.046c0.938,1.33,2.565,1.846,4.073,1.247
	l0.132-0.068c0.959,1.279,2.592,1.766,4.051,1.179l0.173-0.093c0.987,1.24,2.575,1.686,4.029,1.106l0.217-0.115
	c1.006,1.179,2.58,1.601,4.005,1.028l0.259-0.137c1.016,1.123,2.587,1.518,3.978,0.953l0.302-0.161
	c1.038,1.087,2.558,1.428,3.951,0.875l0.356-0.19c1.047,1.026,2.55,1.34,3.912,0.804l0.409-0.217
	c1.067,0.984,2.524,1.279,3.869,0.733l0.461-0.243c1.072,0.928,2.509,1.188,3.825,0.672l0.509-0.27
	c1.07,0.882,2.495,1.12,3.786,0.607l0.543-0.292c1.092,0.853,2.47,1.067,3.754,0.548l0.57-0.312c1.089,0.816,2.463,1.003,3.73,0.502
	l0.587-0.322c1.089,0.787,2.458,0.96,3.713,0.458l0.602-0.331c1.096,0.758,2.456,0.923,3.703,0.421l0.619-0.344
	c1.089,0.733,2.446,0.885,3.678,0.392l0.636-0.351c1.099,0.714,2.449,0.855,3.669,0.368l0.641-0.356
	c1.116,0.709,2.436,0.831,3.659,0.343l0.651-0.358c1.113,0.689,2.426,0.816,3.651,0.324l0.648-0.353
	c1.123,0.674,2.434,0.794,3.651,0.304l0.646-0.351c1.128,0.673,2.446,0.782,3.654,0.292l0.639-0.339
	c1.138,0.66,2.456,0.765,3.663,0.28l0.624-0.331c1.143,0.658,2.473,0.757,3.676,0.273l0.599-0.319
	c1.143,0.653,2.473,0.76,3.703,0.27l0.567-0.302c1.16,0.665,2.502,0.763,3.732,0.268l0.533-0.283
	c1.169,0.662,2.526,0.77,3.766,0.268l0.492-0.26c1.182,0.674,2.555,0.775,3.81,0.277l0.443-0.236
	c1.196,0.687,2.587,0.796,3.854,0.285l0.395-0.21c1.201,0.697,2.609,0.816,3.905,0.3l0.336-0.178
	c1.223,0.711,2.648,0.833,3.964,0.312l0.27-0.144c1.245,0.741,2.697,0.863,4.027,0.329l0.202-0.107
	c1.26,0.765,2.734,0.894,4.095,0.353l0.127-0.068c1.272,0.792,2.772,0.928,4.166,0.378l0.048-0.024
	c1.299,0.818,2.828,0.974,4.249,0.407l0.025-0.015c1.301,0.819,2.84,0.967,4.268,0.4l0.168-0.09c1.282,0.736,2.772,0.85,4.13,0.302
	l0.241-0.129c1.267,0.687,2.724,0.775,4.061,0.246l0.219-0.117c1.277,0.684,2.748,0.772,4.081,0.236l0.112-0.058
	c1.281,0.709,2.765,0.823,4.098,0.312c1.176,0.714,2.592,0.906,3.905,0.524c1.111,0.779,2.479,1.067,3.812,0.814
	c1.026,0.853,2.283,1.286,3.584,1.171c0.765,0.792,1.73,1.308,2.804,1.503c0.58,0.952,1.415,1.686,2.431,2.136l0.005,0.027
	c0.453,1.291,1.335,2.365,2.49,3.035l0.141,0.572c0.424,1.216,1.213,2.224,2.285,2.916l0.2,0.809
	c0.329,0.943,0.889,1.786,1.625,2.441l0.331,0.277l0.268,1.196c0.331,0.95,0.906,1.803,1.668,2.473
	c0.042,0.609,0.139,1.118,0.305,1.598c0.295,0.841,0.772,1.596,1.422,2.241c0.012,0.695,0.124,1.35,0.331,1.944
	c0.268,0.762,0.677,1.454,1.223,2.056c-0.015,0.762,0.102,1.505,0.348,2.214l0.107,0.278c0.241,0.599,0.572,1.154,0.986,1.647
	c-0.036,0.833,0.078,1.642,0.344,2.404l0.314,0.733c-2.025,3.34-2.536,7.469-1.398,11.352c0.923,3.155,2.845,5.781,5.425,7.413
	c-0.054,0.402-0.063,0.965,0.129,1.586c0.141,0.451,0.348,0.796,0.526,1.033c-1.698,3.325-2.558,7.511-2.424,11.808
	c0.029,0.982,0.107,1.959,0.229,2.904c0.322,2.463,0.884,5.084,1.771,8.251c1.566,5.591,3.313,11.062,4.97,16.141
	c0.484,1.486,0.972,2.974,1.461,4.463c1.791,5.457,3.644,11.101,5.301,16.689c9.045,30.497,16.3,61.15,21.562,91.106
	c0.69,3.929,1.247,7.454,1.114,10.816l0.151,0.239l0.098,0.02l0.18-0.075c0.378-0.392,0.886-0.461,1.425-0.534l1.128-0.26
	c1.084-0.475,2.071-1.233,3.023-1.966l0.338-0.26c1.011-0.772,1.396-1.895,1.652-3.357l0.168,1.092l0.178,1.126l0.115,0.166
	l0.2,0.024c0.86-0.256,1.669-0.709,2.453-1.15c0.495-0.275,1.004-0.56,1.511-0.787c0.489-0.22,1.052-0.334,1.646-0.453
	c0.841-0.171,1.71-0.349,2.407-0.85c0.689-0.499,0.631-1.335,0.567-2.22l-0.022-0.334c0.185,0.524,0.319,1.048,0.458,1.591
	l0.329,1.203l0.231,0.176l0.926,0.029c2.136,0.063,4.348,0.132,6.441-0.188l0.173-0.022c0.458-0.053,1.147-0.134,1.359-0.663
	l0.063-0.75l0.11,0.248l0.146,0.132l0.195-0.014c0.874-0.456,1.72-1.121,2.536-1.762c1.074-0.845,2.183-1.72,3.352-2.104
	l0.163-0.302l-0.268-1.084l0.507,0.695l0.149,0.095c0.494,0.127,0.889-0.553,1.44-1.579l0.365-0.633
	c0.458-0.626,0.955-1.216,1.437-1.784l1.03-1.249l0.017-0.283C1132.279,397.16,1131.029,394.123,1130.094,391.733z"/>
<path style="fill:#543E4B;" d="M1909.635,1229.478c-0.318-30.142-0.91-60.25-0.91-90.403c0.017-41.795-10.95-118.136-60.896-154.047
	c-0.452,5.586-0.697,11.358-0.697,17.378c0,4.187,0.215,8.396,0.581,12.619c5.79,5.425,10.695,10.997,14.496,16.204
	c20.334,27.866,26.034,57.609,24.862,89.652c-0.865,23.44-6.372,46.482-13.29,69.387c-5.155,17.091-13.165,34.079-17.262,51.113
	c-4.654,19.389-0.24,38.835-3.208,58.235c-3.539,23.087-10.821,45.401-13.381,68.5c-4.075,36.673-12.039,88.48-41.521,120.487
	c-27.137,29.445-33.796,11.766-41.954-8.887h-618.136v-64.395c-0.91-0.243-1.803-0.638-2.674-1.202
	c-2.656-1.718-4.71-3.595-6.275-5.598c-6.884,9.615-15.572,21.426-22.08,23.316c-9.746,2.833-15.913-5.087-18.336-14.167
	c-15.674,12.835-29.124,26.387-43.854,40.394c-16.946,16.114-44.174,57.481-73.737,84.778
	c-7.367-22.663-36.251-112.554-38.885-125.855c-0.212-1.073-0.254-1.649-0.1-1.649c-52.313-0.111-104.684,9.424-156.797,23.661
	c-1.162-1.66-2.325-3.319-3.483-4.979c-37.967-54.331-73.289-108.96-105.867-162.642c-26.791-44.203-51.736-87.707-74.786-129.914
	c-9.079-16.713-17.911-33.177-26.392-49.441c-24.596-46.947-46.598-91.798-65.905-133.556l0.035-0.053
	c-94.667,64.115-158.542,161.509-194.084,269.088c-23.088,69.888-51.617,136.271-64.489,209.288
	c-8.393,47.596-24.014,91.931-23.886,139.283l-0.004,0.001c-2.277,51.818-10.616,114.833-6.656,167.061
	c6.173,81.414,79.375,119.361,152.983,131.957c16.885,2.888,33.627,4.652,50.252,5.5c-2.93,39.21-6.957,78.261-13.055,116.858
	h892.68c-16.818-106.261-17.9-215.971-23.513-322.939c-0.387-7.313-0.761-14.626-1.129-21.939
	c53.035,5.596,96.029,0.562,143.859-21.175c28.491-12.949,59.134-27.582,89.276-33.556c41.976-8.318,80.97,14.326,122.923,15.692
	c23.349,0.761,39.096-7.761,61.092-13.211c7.885-1.955,17.855-2.67,28.298-3.344c13.019,6.398,30.836,6.586,52.149-1.527
	c55.243-21.027,65.848-69.375,84.668-107.38c14.849-29.983,22.94-61.022,31.576-91.859c6.816-24.35,21.152-48.473,26.739-72.299
	C1915.949,1293.756,1909.953,1259.688,1909.635,1229.478z"/>
<path style="fill:#543E4B;" d="M1000.605,1311.854c-22.161,35.78-45.062,71.035-68.068,104.789l0.037,0.321l0.17,0.068l0.154-0.049
	c21.929-16.906,38.197-38.918,54.392-73.603c3.106-6.655,6.076-13.544,9.218-20.833c1.493-3.464,3.001-6.957,4.539-10.46
	l-0.112-0.321L1000.605,1311.854z"/>
<path style="fill:#543E4B;" d="M1086.63,901.896c-9.704-3.391-19.79-6.594-30.098-9.491l-0.219,0.048l-0.09,0.141
	c-9.846,28.862-64.027,180.244-165.262,331.084c-13.773,20.658-28.691,41.491-44.346,61.92
	c-14.916-19.376-29.837-40.185-44.354-61.856c-101.347-150.908-155.483-302.251-165.329-331.132l-0.095-0.156l-0.219-0.039
	c-11.004,3.099-21.805,6.514-32.1,10.154l-0.159,0.302l0.292,0.176c0.66-0.137,1.318-0.273,1.964-0.41l0.287-0.063
	c10.149,25.968,21.637,53.33,34.156,81.335c5.106,11.503,10.753,23.81,17.262,37.622c17.844,37.744,36.704,74.612,56.056,109.569
	l0.03,0.107c29.021,52.487,59.809,102.129,91.512,147.547c12.902,18.651,26.534,37.301,40.519,55.435l0.198,0.098l0.197-0.098
	c29.304-38.095,58.105-79.805,85.608-123.97l0.024-0.058c3.532-5.676,7.203-11.669,10.914-17.817
	c1.693-2.821,3.376-5.637,5.047-8.448c28.395-47.444,55.423-97.788,80.334-149.637l0.021-0.107l0.005-0.024
	c5.842-12.146,11.664-24.58,17.308-36.955c1.508-3.323,2.998-6.611,4.47-9.871c3.208-7.133,6.458-14.47,9.656-21.813l0.073-0.093
	c9.308-21.432,18.046-42.568,25.97-62.821l0.173,0.039L1086.63,901.896z"/>
<path style="fill:#543E4B;" d="M1037.636,1251.196l0.178-0.073c7.917-8.039,16.368-13.958,25.837-18.095
	c21.774-9.52,48.974-13.623,74.646-11.24l0.19-0.063l0.08-0.185v-155.405l-0.19-0.244l-0.28,0.132l-0.723,1.437
	c-31.791,62.899-65.42,124.595-99.951,183.362l0.063,0.326L1037.636,1251.196z"/>
<path style="fill:#543E4B;" d="M665.534,377.556c2.264,1.033,4.552,2.061,6.866,3.082c14.506,6.398,30.01,12.544,46.486,18.191
	c18.521,6.349,36.372,11.418,53.376,15.458c26.467,6.289,50.881,10.084,72.572,12.32c0.585,0.06,1.167,0.119,1.748,0.177
	c7.956-0.795,16.286-1.8,24.955-3.059c8.427-1.225,17.175-2.692,26.214-4.445c23.7-4.594,49.395-11.151,76.527-20.452
	c32.665-11.197,61.514-24.349,86.322-37.552c3.601-1.917,7.118-3.834,10.548-5.747c0.453-15.244-0.155-36.72-5.072-61.421
	c-1.747-5.358-3.45-10.724-4.964-16.13c-0.762-2.72-1.406-5.461-1.764-8.214c-0.127-0.975-0.201-1.936-0.231-2.88
	c-0.182-0.578-0.366-1.158-0.553-1.738c-4.188-12.994-9.022-24.425-13.908-34.293l-196.871,37.938c-0.782,0.133-1.625,0.133-2.407,0
	l-195.687-40.298c-5.286,10.39-10.566,22.61-15.092,36.653c-11.826,36.699-13.206,69.428-12.582,90.383
	c3.43,1.913,6.947,3.83,10.548,5.747C642.863,366.758,653.86,372.229,665.534,377.556z M675.765,373.498
	c18.237,7.742,36.802,14.587,55.638,20.406c18.832,5.829,37.891,10.801,57.137,14.753c19.2,3.941,38.581,6.846,58.043,8.762
	c19.461-1.923,38.843-4.822,58.043-8.765c19.247-3.947,38.304-8.928,57.136-14.755c18.836-5.819,37.401-12.661,55.637-20.405
	c18.28-7.637,36.167-16.344,53.749-25.724c-17.273,10.026-35.066,19.032-53.199,27.179c-18.169,8.057-36.706,15.183-55.533,21.311
	c-9.404,3.1-18.893,5.909-28.453,8.411c-9.554,2.526-19.163,4.812-28.821,6.844c-9.626,2.025-19.299,3.791-29.007,5.304
	l-0.152,0.023l-0.584,0.087c-9.578,1.438-19.187,2.631-28.816,3.582c-9.141-0.9-18.264-2.028-27.36-3.369
	c-10.444-1.585-20.849-3.453-31.198-5.63c-19.302-4.108-38.469-9.036-57.273-15.258c-18.827-6.128-37.366-13.25-55.533-21.31
	c-18.134-8.145-35.927-17.151-53.201-27.174C639.598,357.152,657.485,365.859,675.765,373.498z"/>
<polygon style="fill:#543E4B;" points="836.539,186.515 836.508,186.515 836.274,186.676 836.367,186.968 836.437,187.017 
	836.578,187.06 836.608,187.06 836.773,187.041 836.993,186.792 836.776,186.544 "/>
<path style="fill:#543E4B;" d="M854.035,186.778c-0.529,0.044-1.067,0.085-1.613,0.119l-0.082,0.02l-0.061-0.01h-0.014
	c-1.822,0.112-3.734,0.171-5.681,0.171c-2.277,0-4.512-0.08-6.64-0.236h-0.018l-0.229,0.158l-0.219-0.192l-1.274-0.112l-0.26,0.171
	l0.11,0.292l0.443,0.26l0.127,0.034l0.044-0.003l0.836-0.149l0.185-0.152l0.127,0.162l0.797,0.405l0.168,0.022l1.036-0.239
	l0.923,0.414l0.168,0.012l1.006-0.28l0.964,0.383l0.173,0.005l0.984-0.334l0.981,0.346l0.083,0.012l0.088-0.015l0.977-0.363
	l1.006,0.312l0.171-0.01l0.935-0.402l1.021,0.258l0.168-0.017l0.912-0.436l0.011,0.005l1.021,0.214l0.051,0.005l0.122-0.031
	l0.597-0.334l0.117-0.29L854.035,186.778z"/>
<path style="fill:#543E4B;" d="M1206.4,186.325c0-0.797-0.748-1.776-2.853-2.136l-355.72-60.458c-0.814-0.136-1.673-0.136-2.492,0
	l-355.717,60.458c-2.107,0.36-2.855,1.34-2.855,2.136c0,0.797,0.75,1.776,2.855,2.134l355.717,60.461l1.247,0.102l1.245-0.102
	l201.342-34.222l0.197-0.178l-0.073-0.256c-0.672-0.595-1.184-1.367-1.479-2.207l-0.217-0.882l-0.11-0.153
	c-1.02-0.634-1.768-1.572-2.158-2.69l-0.161-0.652l-0.119-0.161c-1.096-0.604-1.932-1.605-2.348-2.791l-0.029-0.124l-0.149-0.176
	c-1.001-0.417-1.819-1.135-2.365-2.075l-0.178-0.122c-1.05-0.166-1.991-0.67-2.719-1.459l-0.207-0.078
	c-1.228,0.117-2.455-0.28-3.425-1.123l-0.217-0.056c-1.269,0.28-2.582,0.003-3.632-0.774l-0.224-0.039
	c-1.267,0.412-2.587,0.229-3.722-0.499l-0.275,0.002c-1.242,0.502-2.643,0.385-3.844-0.324l-0.243-0.005l-0.21,0.112
	c-1.23,0.489-2.56,0.39-3.744-0.285l-0.241-0.005l-0.314,0.168c-1.206,0.48-2.565,0.375-3.725-0.292l-0.241-0.005l-0.336,0.18
	c-1.235,0.495-2.611,0.366-3.783-0.346l-0.246-0.007l-0.268,0.144c-1.291,0.509-2.714,0.351-3.907-0.443l-0.256-0.015l-0.129,0.071
	c-1.281,0.514-2.702,0.353-3.885-0.451l-0.253-0.015l-0.156,0.083c-1.257,0.504-2.641,0.351-3.81-0.419l-0.253-0.015l-0.232,0.124
	c-1.232,0.487-2.597,0.346-3.739-0.397l-0.253-0.009l-0.304,0.163c-1.201,0.48-2.543,0.344-3.673-0.375l-0.251-0.012l-0.373,0.2
	c-1.181,0.47-2.502,0.339-3.615-0.358l-0.248-0.01l-0.436,0.234c-1.162,0.462-2.456,0.341-3.557-0.344l-0.248-0.009l-0.495,0.263
	c-1.147,0.455-2.424,0.336-3.505-0.329l-0.249-0.01l-0.543,0.29c-1.128,0.446-2.39,0.336-3.464-0.321l-0.246-0.007l-0.592,0.314
	c-1.113,0.443-2.36,0.329-3.42-0.314l-0.247-0.01l-0.633,0.336c-1.108,0.443-2.339,0.324-3.386-0.312l-0.246-0.01l-0.668,0.356
	c-1.096,0.436-2.319,0.319-3.355-0.314l-0.249-0.01l-0.699,0.373c-1.079,0.433-2.295,0.327-3.328-0.316l-0.248-0.01l-0.723,0.385
	c-1.082,0.438-2.29,0.316-3.316-0.327l-0.248-0.007l-0.738,0.395c-1.08,0.434-2.286,0.309-3.304-0.339l-0.253-0.01l-0.746,0.407
	c-1.086,0.429-2.282,0.304-3.293-0.353l-0.256-0.01l-0.75,0.412c-1.084,0.432-2.282,0.3-3.291-0.37l-0.258-0.012l-0.753,0.417
	c-1.099,0.434-2.294,0.29-3.293-0.39l-0.264-0.015l-0.745,0.417c-1.096,0.444-2.302,0.29-3.296-0.414l-0.263-0.014l-0.743,0.412
	c-1.094,0.439-2.329,0.278-3.306-0.438l-0.268-0.017l-0.726,0.407c-1.109,0.436-2.351,0.268-3.318-0.465l-0.27-0.02l-0.714,0.395
	c-1.111,0.448-2.356,0.263-3.325-0.499l-0.273-0.022l-0.702,0.385c-1.118,0.446-2.373,0.244-3.335-0.541l-0.277-0.026l-0.687,0.377
	c-1.135,0.456-2.39,0.236-3.352-0.587l-0.28-0.029l-0.665,0.361c-1.152,0.461-2.414,0.222-3.374-0.641l-0.283-0.037l-0.636,0.339
	c-1.157,0.463-2.463,0.195-3.403-0.701l-0.29-0.039l-0.592,0.314c-1.189,0.482-2.507,0.188-3.438-0.763l-0.294-0.046l-0.546,0.29
	c-1.203,0.478-2.565,0.154-3.471-0.828l-0.3-0.051l-0.497,0.265c-1.233,0.494-2.599,0.144-3.501-0.894l-0.304-0.058l-0.448,0.238
	c-1.235,0.49-2.641,0.102-3.518-0.972l-0.309-0.063l-0.41,0.219c-1.257,0.504-2.675,0.083-3.53-1.043l-0.316-0.071l-0.375,0.2
	c-1.274,0.511-2.704,0.068-3.547-1.116l-0.319-0.078l-0.336,0.18c-1.294,0.514-2.753,0.027-3.559-1.189l-0.324-0.08l-0.299,0.161
	c-1.313,0.526-2.787,0.007-3.569-1.255l-0.329-0.088l-0.263,0.141c-0.906,0.361-1.878,0.236-2.69-0.336l-0.304,0.012l-0.465,0.392
	l-1.162-0.07l-0.236,0.131l-0.733,0.512l-1.186-0.151l-0.239,0.11l-0.814,0.473l-1.053-0.193l-0.331,0.068l-0.814,0.429
	l-1.125-0.268l-0.241,0.073l-0.909,0.402l-0.987-0.273l-0.329,0.019l-0.933,0.366l-0.962-0.309l-0.243-0.046l-1.06,0.375
	l-0.916-0.344l-0.331-0.012l-0.892,0.295l-0.083-0.003l-0.919-0.383l-0.326-0.029l-1.011,0.253l-0.867-0.412l-0.243-0.085
	l-1.157,0.237l-0.807-0.441l-0.241-0.1l-1.123,0.176l-0.892-0.565l-0.159-0.036l-1.186,0.119l-0.706-0.533l-0.234-0.144
	l-1.157,0.032l-0.75-0.704l-0.151-0.066l-1.177-0.09l-0.599-0.804l-0.229-0.1l-1.047-0.224l-0.188-0.563l-0.144-0.151
	c-1.428-0.58-2.215-1.225-2.215-1.822v-4.375c2.212,2.271,11.413,3.593,20.348,3.593c8.928,0,18.134-1.323,20.346-3.593v4.073
	l0.144,0.226c0.501,0.232,0.937,0.602,1.257,1.072l0.324,0.08l0.353-0.19c1.235-0.502,2.631-0.073,3.464,1.062l0.319,0.07
	l0.388-0.207c1.213-0.489,2.606-0.09,3.455,0.987l0.312,0.068l0.424-0.226c1.221-0.483,2.565-0.127,3.44,0.913l0.307,0.058
	l0.461-0.246c1.191-0.475,2.531-0.146,3.417,0.84l0.302,0.056l0.504-0.268c1.174-0.475,2.47-0.173,3.381,0.775l0.297,0.049
	l0.558-0.297c1.142-0.46,2.426-0.185,3.35,0.712l0.29,0.044l0.607-0.324c1.121-0.443,2.394-0.197,3.32,0.653l0.287,0.036
	l0.648-0.351c1.125-0.439,2.348-0.219,3.293,0.597l0.283,0.032l0.687-0.378c1.101-0.441,2.324-0.236,3.271,0.546l0.28,0.024
	l0.714-0.4c1.094-0.433,2.309-0.251,3.257,0.494l0.275,0.022l0.738-0.417c1.079-0.427,2.297-0.265,3.245,0.458l0.273,0.017
	l0.75-0.426c1.072-0.429,2.275-0.263,3.23,0.429l0.268,0.014l0.772-0.438c1.07-0.424,2.244-0.282,3.216,0.402l0.268,0.012
	l0.787-0.453c1.065-0.429,2.234-0.282,3.206,0.38l0.265,0.01l0.802-0.46c1.05-0.422,2.222-0.29,3.203,0.356l0.261,0.007l0.806-0.463
	c1.048-0.421,2.217-0.294,3.204,0.336l0.258,0.008l0.809-0.463c1.052-0.417,2.217-0.304,3.203,0.319l0.255,0.005l0.814-0.461
	c1.04-0.419,2.212-0.312,3.211,0.302l0.253,0.005l0.807-0.453c1.055-0.412,2.227-0.312,3.223,0.292l0.251,0.005l0.796-0.446
	c1.048-0.422,2.229-0.319,3.24,0.282l0.246,0.005l0.784-0.434c1.06-0.422,2.246-0.319,3.257,0.275l0.246,0.005l0.767-0.416
	c1.065-0.417,2.263-0.324,3.282,0.268l0.243,0.007l0.745-0.395c1.07-0.439,2.285-0.338,3.315,0.27l0.244,0.007l0.711-0.378
	c1.086-0.431,2.314-0.336,3.357,0.275l0.244,0.007l0.667-0.355c1.101-0.441,2.346-0.336,3.403,0.285l0.244,0.008l0.624-0.332
	c1.121-0.451,2.38-0.341,3.455,0.3l0.243,0.007l0.57-0.305c1.147-0.456,2.422-0.346,3.508,0.314l0.246,0.007l0.514-0.275
	c1.167-0.458,2.466-0.343,3.571,0.331l0.246,0.01l0.45-0.241c1.186-0.47,2.514-0.348,3.635,0.353l0.249,0.01l0.383-0.205
	c1.215-0.487,2.567-0.346,3.705,0.375l0.251,0.012l0.309-0.166c1.238-0.497,2.621-0.348,3.781,0.405l0.251,0.012l0.234-0.122
	c1.247-0.499,2.634-0.361,3.803,0.397l0.248,0.012l0.207-0.11c1.194-0.47,2.536-0.365,3.681,0.302l0.244,0.008l0.346-0.186
	c1.186-0.47,2.47-0.392,3.623,0.246l0.236,0.003l0.41-0.219c1.191-0.475,2.485-0.392,3.641,0.239l0.237,0.002l0.392-0.209
	c1.213-0.48,2.575-0.38,3.739,0.282l0.241,0.003l0.287-0.154c1.277-0.511,2.706-0.373,3.917,0.373l0.249,0.01l0.1-0.056
	c1.398-0.565,2.928-0.371,4.2,0.526l0.224,0.032c1.491-0.514,3.113-0.2,4.348,0.84l0.219,0.051c1.567-0.388,3.192,0.105,4.346,1.303
	l0.209,0.075c1.82-0.217,3.559,0.661,4.551,2.298l0.18,0.117c1.808,0.246,3.321,1.52,3.954,3.345l0.149,0.168
	c1.347,0.536,2.404,1.657,2.889,3.048l0.132,0.541l0.127,0.163c1.145,0.602,2.02,1.629,2.453,2.875l0.19,0.77l0.114,0.153
	c1.067,0.636,1.854,1.6,2.26,2.767l0.273,1.157l0.1,0.144c0.899,0.641,1.572,1.542,1.942,2.602l0.146,0.531l0.285,0.193
	l143.664-24.419C1205.653,188.1,1206.4,187.122,1206.4,186.325z"/>
<polygon style="fill:#543E4B;" points="855.745,186.617 855.022,186.69 854.798,186.932 855.007,187.184 855.49,187.26 
	855.529,187.263 855.66,187.226 855.901,187.078 856.006,186.785 "/>
<path style="fill:#F7B7A1;" d="M1866.909,685.608c-3.815-3.25-7.603-6.709-11.615-10.368
	c-14.227-12.974-28.935-26.387-46.543-32.307c-3.391-1.13-6.836-1.954-10.237-2.455c-5.591-0.799-11.457-0.75-17.45,0.146
	c-18.923,2.835-39.754,14.49-55.727,31.177l-0.239,0.248c-7.701,8.044-22.034,23.02-14.171,34.699
	c7.671,11.391,20.378,6.529,29.272,1.875c7.318-3.829,14.419-8.467,21.284-12.95c3.525-2.299,7.17-4.677,10.772-6.899
	c3.623-2.231,6.456-3.615,8.918-4.365c3.937-1.184,7.315-0.94,12.008,0.97c-2.085-0.209-4.008-0.278-5.615-0.219
	c-2.268,0.097-4.458,0.361-6.514,0.78c-8.141,1.656-14.904,5.832-21.279,13.13c-12.183,13.949-22.95,31.313-33.885,54.65
	c-1.676,3.581-3.401,7.386-5.128,11.308c-0.699,1.589-1.659,3.425-2.677,5.374c-4.66,8.93-11.045,21.154-1.668,27.25
	c5.396,3.508,11.486,2.333,18.594-3.591c-0.485,1.823-0.96,3.644-1.425,5.462c-0.432,1.686-1.082,3.668-1.769,5.768
	c-3.131,9.559-7.416,22.646,2.818,27.123c1.367,0.595,2.748,0.94,4.109,1.018c-1.337,6.003-2.107,14.197,5.608,17.574
	c11.91,5.199,21.045-10.212,27.079-20.419c1.109-1.871,2.153-3.64,3.062-5.013c1.791-2.699,3.815-5.963,5.961-9.418l0.4-0.643
	v366.441l0.092,0.195l0.156,0.054l0.053-0.005c20.979-4.707,41.727-16.302,51.63-28.858c10.916-13.842,20.639-35.542,23.116-51.605
	c2.814-18.319-0.495-37.886-3.695-56.804c-1.664-9.832-3.384-19.995-4.244-29.924c-0.392-4.522-0.582-8.644-0.582-12.599
	c0-5.808,0.236-11.649,0.699-17.359c1.106-13.671,3.527-27.167,7.62-42.465c5.688-9.73,9.528-21.895,12.612-31.674
	c0.757-2.407,1.474-4.677,2.156-6.714c4.726-14.085,7.866-28.779,10.901-42.992c1.289-6.027,2.619-12.253,4.059-18.382
	c2.419-10.305,5.588-20.56,8.655-30.48c6.4-20.716,13.016-42.129,13.016-64.794C1907.097,723.221,1887.783,703.401,1866.909,685.608
	z"/>
<path style="fill:#F7B7A1;" d="M1221.146,1324.029c-0.41-14.197-0.733-25.408-6.619-38.928
	c-11.203-25.676-26.589-52.921-55.761-60.351c-6.436-1.632-13.308-2.797-20.426-3.459c-25.734-2.373-53.037,1.73-74.889,11.279
	c-9.528,4.165-18.029,10.119-25.993,18.202c-15.615,15.864-26.322,37.325-35.564,58.158c-0.331,0.745-0.663,1.491-0.989,2.237
	l-0.316,0.716c-1.537,3.508-3.045,7.002-4.539,10.465c-3.143,7.288-6.11,14.173-9.213,20.818
	c-16.158,34.611-32.38,56.57-54.246,73.423l-0.265,0.195l-0.093,0.249c2.631,13.276,31.347,102.67,38.894,125.885l0.173,0.166
	l0.063,0.005l0.168-0.063c17.15-15.834,33.293-36.122,47.534-54.022c10.246-12.877,19.096-23.995,26.207-30.758
	c3.14-2.986,6.224-5.953,9.286-8.901c11.34-10.913,22.056-21.223,34.256-31.235c1.722,6.183,4.84,10.806,8.806,13.043
	c2.909,1.647,6.185,1.959,9.737,0.921c6.295-1.823,14.322-12.395,22.022-23.138c1.6,1.983,3.661,3.795,6.129,5.393
	c0.87,0.565,1.793,0.979,2.745,1.233c0.765,0.21,1.542,0.307,2.329,0.307c15.783,0,35.566-39.63,44.251-57.023
	c0.875-1.759,1.637-3.284,2.266-4.512c0.312-0.609,0.626-1.233,0.938-1.866c3.033-6.143,7.096-15.474,9.445-25.379
	c0.896,2.251,1.454,4.565,1.998,6.811c0.777,3.23,1.583,6.572,3.406,9.72c4.443,7.649,8.317,11.055,11.55,10.129
	c5.564-1.603,7.176-15.62,6.884-24.078C1221.253,1327.732,1221.197,1325.856,1221.146,1324.029z"/>
<path style="fill:#421F35;" d="M1756.422,1480.311c4.56,11.552,8.87,22.465,16.806,23.941c0.604,0.112,1.226,0.171,1.864,0.171
	c6.102,0,13.82-5.145,23.5-15.649c13.033-14.149,23.242-33.866,30.346-58.597c6.287-21.89,9.308-44.648,11.24-62.032
	c1.42-12.823,4.351-25.632,7.184-38.017c2.273-9.935,4.621-20.209,6.195-30.475c1.338-8.731,1.179-17.603,1.028-26.183
	c-0.188-10.509-0.38-21.378,2.178-32.034c2.356-9.793,6.073-19.752,9.669-29.383c2.655-7.108,5.401-14.461,7.588-21.715
	c5.696-18.855,12.355-43.79,13.301-69.447c1.323-36.17-6.592-64.706-24.909-89.808c-3.98-5.451-9.004-11.064-14.529-16.239
	l-0.28-0.043l-0.139,0.244c0.863,9.954,2.582,20.127,4.249,29.968c3.193,18.88,6.497,38.407,3.695,56.643
	c-2.468,15.99-12.146,37.593-23.013,51.372c-9.839,12.473-30.475,24-51.347,28.682l-0.194,0.244v297.515h-24.397l-0.207,0.107
	l-0.024,0.234L1756.422,1480.311z"/>
<path style="fill:#421F35;" d="M965.67,838.183c28.682,0,47.233-3.693,47.528-3.752l0.159-0.107l0.034-0.195l-30.704-129.155
	l-0.178-0.18l-0.246,0.068c-0.151,0.156-15.337,16.024-40.005,31.41c-22.008,13.73-56.124,29.779-95.332,29.779
	c-1.333,0-2.68-0.015-4.025-0.054c-62.94-1.778-104.614-37.612-127.001-56.862c-1.99-1.715-3.871-3.333-5.588-4.77l-0.329,0.005
	l-0.036,0.326c26.349,38.358,58.687,69.043,96.117,91.216c29.944,17.734,63.194,30.085,98.826,36.711
	C927.631,836.858,948.469,838.183,965.67,838.183z"/>
<path style="fill:#421F35;" d="M896.337,1044.989c-13.113-16.648-22.736-31.522-28.599-44.199l-0.227-0.146h-41.873l-0.227,0.146
	c-5.871,12.697-15.491,27.566-28.595,44.195l0.003,0.316l20.845,25.262l-15.859,153.296l0.042,0.161
	c14.587,21.778,29.583,42.685,44.57,62.139l0.198,0.097l0.197-0.097c15.734-20.516,30.726-41.447,44.563-62.207l0.042-0.161
	l-15.873-153.286l20.792-25.199L896.337,1044.989z"/>
<path style="fill:#421F35;" d="M821.134,610.617l0.246,0.2h0.017c21.771-1.598,38.304-7.211,50.545-17.159l0.056-0.322l-1.523-2.558
	c-11.338-20.848-14.653-45.52-17.861-69.383l-0.266-1.968l-0.076-0.77c-0.319-3.284-0.65-6.68-1.12-10.039l-0.246-0.215h-0.005
	l-0.243,0.221c-3.461,33.242,0.833,61.184,12.765,83.055c-11.649,8.741-25.971,13.618-42.117,18.651L821.134,610.617z"/>
<path style="fill:#421F35;" d="M774.252,456.768c10.682-17.613-0.992-34.046-1.111-34.209l-0.202-0.102h-0.005
	c-43.632,0.879-67.425,13.008-79.7,23.028c-13.33,10.879-16.356,21.717-16.385,21.824l0.093,0.265l0.149,0.049l0.131-0.036
	c22.782-14.088,47.871-16.271,64.897-15.584c18.465,0.721,31.712,4.833,31.844,4.875L774.252,456.768z"/>
<path style="fill:#421F35;" d="M738.101,497.604c0,14.982,6.699,27.172,14.935,27.172c8.234,0,14.933-12.19,14.933-27.172
	c0-14.985-6.699-27.172-14.933-27.172C744.801,470.432,738.101,482.619,738.101,497.604z"/>
<ellipse style="fill:#421F35;" cx="940.13" cy="497.604" rx="14.933" ry="27.172"/>
<path style="fill:#421F35;" d="M665.636,377.328c-11.062-5.048-22.151-10.521-32.955-16.271l-0.243,0.005l-0.122,0.21
	c-0.407,23.169,0.85,69.783,13.825,121.668c0.811,3.247,1.664,6.492,2.531,9.642l0.241,0.183l0.036-0.003l0.212-0.25
	c-0.01-0.661-0.947-66.604,16.607-114.872L665.636,377.328z"/>
<path style="fill:#421F35;" d="M772.321,414.044c-17.903-4.253-35.852-9.452-53.355-15.452
	c-15.588-5.342-31.22-11.459-46.465-18.183l-0.297,0.076v0.307c9.447,12.127,25.661,22.209,45.659,28.39
	c15.886,4.909,32.746,5.101,49.05,5.289c1.78,0.019,3.564,0.041,5.345,0.066h0.005l0.249-0.217L772.321,414.044z"/>
<path style="fill:#421F35;" d="M884.859,447.669l0.154,0.051l0.158-0.056l0.063-0.304c-4.073-8.037-8.612-16.032-13.486-23.769
	l-0.249-0.112c-8.29,1.204-16.682,2.234-24.892,3.057c-0.582-0.058-1.164-0.117-1.747-0.178h-0.027l-0.244,0.195l0.163,0.29
	C860.613,432.254,873.731,439.065,884.859,447.669z"/>
<path style="fill:#421F35;" d="M1044.215,492.763l0.278-0.18c0.875-3.174,1.727-6.419,2.531-9.642
	c5.308-21.223,9.162-43.593,11.444-66.446c4.426-14.967,5.272-31.746,2.444-48.484c-0.003-2.202-0.022-4.407-0.063-6.738
	l-0.122-0.21l-0.244-0.005c-27.876,14.836-56.906,27.467-86.285,37.535c-24.999,8.57-50.735,15.447-76.492,20.443l-0.202,0.217
	l0.146,0.255c1.05,0.475,2.102,0.955,3.15,1.445c5.323,2.483,10.67,5.196,15.891,8.063c-2.619,6.753-4.31,16.982,2.222,27.752
	l0.29,0.11c0.134-0.044,13.744-4.268,32.611-4.904c24.158,18.546,44.872,40.655,61.569,65.708l0.207,0.112l0.056-0.005l0.19-0.209
	c2.302-16.563,2.692-33.574,1.162-50.57l0.947,0.578l0.28-0.013l0.093-0.265c-0.017-0.063-0.441-1.612-1.695-4.139
	c-2.307-21.581-7.64-42.724-15.849-62.855c15.274,8.256,29.863,16.745,40.872,29.164c4.809,33.498,4.363,62.741,4.358,63.033
	L1044.215,492.763z"/>
<path style="fill:#421F35;" d="M1071.365,347.647l-0.334-0.097c-19.001,10.136-36.575,18.548-53.729,25.715
	c-18.448,7.834-37.16,14.694-55.613,20.395c-19.321,5.978-38.536,10.94-57.116,14.75c-18.853,3.874-38.373,6.821-57.966,8.76
	c-19.554-1.924-39.074-4.87-58.017-8.755c-18.646-3.83-37.861-8.789-57.115-14.748c-18.438-5.698-37.15-12.56-55.615-20.397
	c-17.167-7.177-34.741-15.588-53.727-25.72l-0.333,0.097l0.092,0.339c16.599,9.632,34.507,18.777,53.225,27.184v0.002
	c18.177,8.066,36.869,15.238,55.556,21.318c17.503,5.793,36.246,10.784,57.299,15.264c10.141,2.134,20.643,4.03,31.213,5.635
	c9.152,1.35,18.363,2.483,27.423,3.372c9.62-0.952,19.318-2.158,28.826-3.586l0.738-0.11c9.727-1.515,19.493-3.301,29.021-5.308
	c9.557-2.01,19.257-4.314,28.833-6.845c9.479-2.48,19.057-5.313,28.467-8.417c18.658-6.07,37.35-13.242,55.557-21.32
	c18.723-8.409,36.631-17.559,53.222-27.189L1071.365,347.647z"/>
<path style="fill:#421F35;" d="M1206.4,198.356v-12.031l-0.248-0.249l-0.249,0.249c0,0.745-0.957,1.391-2.439,1.642l-143.664,24.419
	l-0.166,0.107l-0.036,0.192l0.134,0.919l0.09,0.173c0.772,0.634,1.355,1.469,1.683,2.417c0.185,0.531,0.283,1.109,0.3,1.766
	l0.078,0.178c0.675,0.624,1.164,1.367,1.459,2.21c0.219,0.626,0.324,1.304,0.314,2.02l0.068,0.176
	c0.58,0.599,1.006,1.286,1.269,2.044c0.248,0.709,0.356,1.45,0.324,2.195l0.073,0.19l0.2,0.1l0.046-0.003l137.91-26.577
	C1205.653,200.133,1206.4,199.153,1206.4,198.356z"/>
<path style="fill:#421F35;" d="M487.261,186.325l-0.248-0.249l-0.249,0.249v7.325c0,0.799,0.75,1.779,2.846,2.134l355.717,73.252
	l0.01,0.003l1.245,0.105l1.252-0.105l207.413-39.968l0.173-0.129l0.012-0.212l-0.097-0.256c-0.236-0.68-0.346-1.398-0.321-2.136
	l-0.066-0.178c-0.531-0.568-0.931-1.225-1.184-1.956c-0.2-0.573-0.305-1.206-0.307-1.886l-0.076-0.18
	c-0.631-0.607-1.094-1.318-1.371-2.119c-0.161-0.461-0.251-0.957-0.287-1.567l-0.088-0.175c-0.743-0.631-1.281-1.415-1.591-2.3
	l-0.28-1.257l-0.095-0.146l-0.373-0.309l-0.207-0.058l-201.342,34.221c-0.762,0.127-1.569,0.127-2.326,0l-355.717-60.46
	C488.221,187.716,487.261,187.07,487.261,186.325z"/>
<path style="fill:#421F35;" d="M826.235,177.487l-0.248-0.248l-0.249,0.248v5.435c0,0.835,0.848,1.605,2.526,2.285
	c1.883,0.762,4.724,1.386,8.212,1.805l0.236,0.029h0.003c0.47,0.054,0.95,0.105,1.44,0.151l1.284,0.112l0.467,0.034
	c2.141,0.158,4.387,0.236,6.677,0.236c1.956,0,3.878-0.056,5.708-0.171l0.161-0.01c0.55-0.034,1.094-0.075,1.622-0.119l0.996-0.088
	l0.726-0.073c2.729-0.292,11.63-1.457,11.63-4.192v-5.43l-0.249-0.248l-0.248,0.246c-0.012,2.005-8.19,4.153-20.346,4.153
	C834.413,181.643,826.235,179.494,826.235,177.487z"/>
<path style="fill:#421F35;" d="M429.726,1550.538l6.117-220.701l-0.232-0.254h-0.017l-0.248,0.219
	c-0.2,1.846-20.436,185.023-52.105,231.318l-0.009,0.263l0.217,0.127h0.014c0.273-0.014,27.474-1.769,46.122-10.753
	L429.726,1550.538z"/>
<path style="fill:#421F35;" d="M421.822,1957.529l0.107-0.024c0.461-0.219,46.792-22.387,118.736-48.94
	c66.399-24.507,168.813-57.861,279.634-77.603l0.202-0.278l-0.271-0.215c-1.578,0.156-159.045,16.005-268.005,39.737
	c-108.175,23.552-116.343,10.977-116.407,10.86l-0.258-0.141l-0.212,0.205l-13.774,76.107l0.095,0.244L421.822,1957.529z"/>
<path style="fill:#421F35;" d="M1267.533,1638.664c13.769,2.519,25.839,3.508,36.31,3.508c17.566,0,30.616-2.782,39.549-5.759
	c15.471-5.155,22.309-12.015,22.375-12.083l0.022-0.326l-104.166-137.486l-0.285-0.083l-0.163,0.244l6.153,151.751
	L1267.533,1638.664z"/>
<path style="fill:#421F35;" d="M882.883,669.725c-3.298,0-6.655-0.312-10.029-0.935c-1.016-0.19-1.685-1.169-1.496-2.183
	c0.19-1.018,1.174-1.661,2.183-1.501c12.319,2.309,24.37,0.039,33.915-6.354c10.078-6.753,16.741-17.495,19.264-31.059
	c0.19-1.018,1.169-1.661,2.183-1.501c1.016,0.19,1.686,1.17,1.496,2.183c-2.714,14.582-9.927,26.158-20.86,33.486
	C901.809,667.041,892.591,669.725,882.883,669.725z"/>
<path style="fill:#421F35;" d="M624.632,551.313c-0.774,0-1.498-0.482-1.766-1.257c-1.252-3.596-2.667-7.674-2.545-11.912
	c0.146-4.984,2.68-9.388,6.453-11.215c4.941-2.373,10.604-0.141,14.258,2.733c1.686,1.33,3.194,2.889,4.485,4.619
	c-0.419-4.58-1.033-9.174-2.395-13.491c-2.088-6.621-7.108-14.419-14.94-16.433c-5.347-1.369-11.511,0.368-15.34,4.336
	c-3.829,3.976-5.349,10.198-3.783,15.489c0.295,0.989-0.27,2.031-1.262,2.324c-1.001,0.302-2.029-0.268-2.324-1.262
	c-1.971-6.641-0.134-14.156,4.675-19.147c4.816-4.987,12.26-7.089,18.967-5.364c7.91,2.037,14.482,9.116,17.576,18.938
	c1.959,6.212,2.458,12.731,2.941,19.035c0.158,2.056,0.314,4.112,0.521,6.153c0.102,0.999-0.602,1.9-1.593,2.041
	c-0.999,0.146-1.922-0.516-2.107-1.505c-0.935-4.989-3.754-9.652-7.737-12.794c-2.767-2.183-6.931-3.941-10.312-2.299
	c-3.077,1.486-4.263,5.213-4.341,7.951c-0.105,3.552,1.138,7.123,2.336,10.577c0.341,0.975-0.175,2.042-1.152,2.383L624.632,551.313
	z"/>
<path style="fill:#421F35;" d="M1068.532,551.313l-0.616-0.102c-0.974-0.341-1.491-1.408-1.15-2.383
	c1.199-3.449,2.441-7.011,2.336-10.577c-0.078-2.738-1.262-6.46-4.343-7.951c-3.374-1.637-7.542,0.122-10.312,2.305
	c-3.981,3.138-6.799,7.8-7.734,12.789c-0.185,0.989-1.099,1.676-2.107,1.505c-0.991-0.141-1.695-1.043-1.593-2.041
	c0.207-2.041,0.363-4.097,0.521-6.153c0.482-6.304,0.982-12.823,2.938-19.035c3.097-9.822,9.669-16.901,17.581-18.938
	c6.704-1.72,14.153,0.375,18.964,5.364c4.809,4.989,6.646,12.507,4.677,19.147c-0.29,0.989-1.325,1.559-2.324,1.262
	c-0.991-0.292-1.557-1.335-1.262-2.324c1.567-5.291,0.044-11.513-3.786-15.489c-3.832-3.971-10-5.715-15.337-4.336
	c-7.834,2.017-12.855,9.812-14.945,16.433c-1.359,4.317-1.973,8.911-2.392,13.491c1.291-1.725,2.799-3.289,4.482-4.614
	c3.661-2.884,9.321-5.111,14.258-2.738c3.781,1.832,6.312,6.231,6.456,11.215c0.122,4.254-1.294,8.322-2.546,11.912
	C1070.03,550.831,1069.307,551.313,1068.532,551.313z"/>
<path style="fill:#421F35;" d="M648.83,264.196l-0.122-0.005c-1.03-0.063-1.813-0.955-1.747-1.985
	c0.573-9.001,2.151-17.966,4.694-26.648c0.29-0.989,1.318-1.554,2.322-1.269c0.991,0.29,1.559,1.33,1.269,2.321
	c-2.465,8.417-3.995,17.108-4.553,25.834C650.633,263.433,649.809,264.196,648.83,264.196z"/>
<path style="fill:#421F35;" d="M666.148,266.266c-0.833,0-1.593-0.56-1.81-1.406l-5.956-23.225
	c-0.256-1.001,0.346-2.022,1.347-2.277c0.994-0.246,2.019,0.343,2.277,1.347l5.956,23.225c0.256,1.001-0.346,2.022-1.347,2.277
	L666.148,266.266z"/>
<path style="fill:#421F35;" d="M1025.236,259.628l-0.931-0.249c-0.896-0.517-1.203-1.662-0.689-2.556l10.068-17.496
	c0.514-0.894,1.656-1.203,2.555-0.689c0.896,0.516,1.203,1.661,0.689,2.555l-10.068,17.496
	C1026.515,259.292,1025.884,259.628,1025.236,259.628z"/>
<path style="fill:#421F35;" d="M1035.109,264.213l-0.507-0.071c-0.996-0.28-1.573-1.313-1.293-2.307l5.033-17.854
	c0.28-0.996,1.323-1.586,2.307-1.294c0.996,0.28,1.573,1.313,1.293,2.307l-5.033,17.854
	C1036.678,263.674,1035.928,264.213,1035.109,264.213z"/>
<path style="fill:#421F35;" d="M841.743,365.399l-0.114-0.002c-1.031-0.063-1.818-0.948-1.757-1.981
	c1.503-25.238,1.481-50.838-0.063-76.088c-0.061-1.03,0.723-1.92,1.754-1.983c1.033-0.097,1.919,0.724,1.983,1.754
	c1.552,25.398,1.574,51.15,0.063,76.541C843.548,364.631,842.725,365.399,841.743,365.399z"/>
<path style="fill:#421F35;" d="M852.069,388.605l-0.26-0.017c-1.023-0.144-1.737-1.089-1.596-2.112
	c1.439-10.285,1.63-20.743,0.567-31.081c-0.105-1.026,0.643-1.947,1.671-2.051c1.035-0.109,1.946,0.643,2.051,1.671
	c1.092,10.636,0.897,21.396-0.582,31.978C853.79,387.928,852.988,388.605,852.069,388.605z"/>
<path style="fill:#421F35;" d="M1043.102,349.623c-0.802,0-1.542-0.516-1.788-1.32c-0.305-0.989,0.25-2.034,1.237-2.339
	c5.508-1.693,11.184-2.969,16.877-3.793c1.004-0.124,1.973,0.558,2.119,1.583c0.149,1.023-0.56,1.971-1.583,2.119
	c-5.5,0.796-10.989,2.029-16.312,3.666L1043.102,349.623z"/>
<path style="fill:#421F35;" d="M1039.565,339.336c-1.26,0-2.521-0.029-3.783-0.09c-1.033-0.049-1.827-0.926-1.779-1.959
	c0.051-1.033,0.945-1.803,1.959-1.779c5.849,0.29,11.708-0.119,17.432-1.201c1.006-0.197,1.991,0.477,2.185,1.493
	c0.19,1.016-0.477,1.993-1.493,2.185C1049.312,338.885,1044.442,339.336,1039.565,339.336z"/>
<path style="fill:#421F35;" d="M660.642,357.492l-0.675-0.127c-7.746-2.991-15.288-6.655-22.416-10.892
	c-0.889-0.526-1.181-1.676-0.653-2.563c0.524-0.889,1.676-1.181,2.563-0.653c6.95,4.126,14.305,7.7,21.857,10.619
	c0.962,0.37,1.442,1.454,1.069,2.419C662.102,357.036,661.392,357.492,660.642,357.492z"/>
<path style="fill:#421F35;" d="M654.693,347.106l-0.638-0.112l-14.884-5.406c-0.972-0.353-1.474-1.425-1.121-2.397
	c0.351-0.969,1.42-1.464,2.397-1.121l14.884,5.406c0.972,0.353,1.474,1.427,1.121,2.397
	C656.174,346.634,655.458,347.106,654.693,347.106z"/>
<path style="fill:#421F35;" d="M789.127,337.494h-0.068c-43.423-1.535-86.874-15.852-122.353-40.317
	c-0.85-0.587-1.064-1.752-0.477-2.602c0.59-0.85,1.749-1.069,2.602-0.477c34.899,24.064,77.644,38.149,120.36,39.654
	c1.033,0.036,1.839,0.904,1.805,1.937C790.959,336.7,790.128,337.494,789.127,337.494z"/>
<path style="fill:#421F35;" d="M693.838,299.82l-0.723-0.146c-11.611-4.862-22.753-10.901-33.123-17.947
	c-0.853-0.58-1.077-1.744-0.494-2.599c0.575-0.855,1.732-1.079,2.599-0.494c10.161,6.906,21.084,12.823,32.465,17.591
	c0.952,0.397,1.401,1.493,1.001,2.448C695.264,299.389,694.569,299.82,693.838,299.82z"/>
<path style="fill:#421F35;" d="M779.422,350.03c-8.171,0-16.344-0.237-24.453-0.709c-1.03-0.061-1.817-0.945-1.759-1.978
	c0.061-1.03,0.872-1.839,1.978-1.759c14.183,0.831,28.577,0.923,42.782,0.292c0.904-0.103,1.907,0.752,1.951,1.785
	c0.046,1.03-0.753,1.905-1.786,1.951C791.924,349.891,785.675,350.03,779.422,350.03z"/>
<path style="fill:#421F35;" d="M900.235,383.355c-0.677,0-1.333-0.368-1.664-1.011c-0.475-0.918-0.114-2.048,0.802-2.521
	c38.002-19.64,74.358-42.816,108.056-68.887c0.821-0.636,1.995-0.482,2.623,0.334c0.634,0.816,0.482,1.993-0.334,2.624
	c-33.876,26.212-70.424,49.51-108.626,69.252L900.235,383.355z"/>
<path style="fill:#421F35;" d="M878.486,382.03c-0.73,0-1.422-0.431-1.725-1.145c-0.399-0.952,0.046-2.051,0.999-2.451
	c9.798-4.12,19.277-9.118,28.175-14.857c0.867-0.56,2.025-0.309,2.585,0.558s0.312,2.025-0.558,2.585
	c-9.082,5.859-18.755,10.962-28.75,15.164L878.486,382.03z"/>
<path style="fill:#421F35;" d="M994.184,341.333c-0.563,0-1.116-0.251-1.486-0.731c-0.628-0.818-0.475-1.993,0.344-2.624
	c10.614-8.165,20.253-17.544,28.651-27.876c0.652-0.806,1.834-0.923,2.631-0.272c0.804,0.653,0.923,1.829,0.273,2.631
	c-8.58,10.558-18.429,20.141-29.274,28.485L994.184,341.333z"/>
<path style="fill:#421F35;" d="M654.691,171.704c-0.887,0-1.673-0.631-1.839-1.535c-0.185-1.016,0.489-1.99,1.505-2.178
	l159.101-29.031c1.021-0.17,1.993,0.49,2.178,1.506c0.185,1.016-0.49,1.99-1.506,2.178l-159.101,29.031L654.691,171.704z"/>
<path style="fill:#421F35;" d="M715.943,171.704c-0.868,0-1.647-0.609-1.829-1.491c-0.21-1.013,0.441-2.003,1.452-2.212
	l70.197-14.516c1.03-0.205,2.003,0.44,2.212,1.452c0.209,1.013-0.441,2.002-1.452,2.212l-70.197,14.517L715.943,171.704z"/>
<path style="fill:#421F35;" d="M842.861,243.041c-0.585,0-1.159-0.272-1.525-0.784l-6.517-9.128c-0.602-0.84-0.404-2.01,0.436-2.609
	c0.841-0.607,2.008-0.407,2.609,0.436l6.516,9.128c0.602,0.84,0.405,2.01-0.436,2.609L842.861,243.041z"/>
<path style="fill:#421F35;" d="M852.695,243.041c-0.986,0-1.813-0.774-1.866-1.771l-0.631-11.861
	c-0.053-1.033,0.738-1.912,1.769-1.968c0.999-0.066,1.912,0.738,1.969,1.769l0.631,11.861c0.054,1.033-0.738,1.912-1.769,1.969
	L852.695,243.041z"/>
<path style="fill:#421F35;" d="M1165.63,187.048l-0.314-0.027l-50.277-8.506c-1.018-0.173-1.705-1.138-1.532-2.156
	c0.173-1.021,1.16-1.717,2.156-1.532l50.278,8.507c1.018,0.173,1.705,1.137,1.533,2.156
	C1167.319,186.403,1166.527,187.048,1165.63,187.048z"/>
<path style="fill:#421F35;" d="M1126.486,193.27c-0.964,0-1.783-0.741-1.861-1.72c-0.085-1.03,0.682-1.932,1.712-2.015l20.422-1.659
	c1.035-0.088,1.934,0.682,2.015,1.713c0.085,1.03-0.682,1.932-1.712,2.015l-20.422,1.659L1126.486,193.27z"/>
<path style="fill:#421F35;" d="M524.922,189.121c-0.943,0-1.754-0.711-1.859-1.671c-0.109-1.028,0.634-1.949,1.661-2.061
	l58.285-6.275c1.03-0.09,1.949,0.633,2.06,1.661c0.11,1.028-0.633,1.949-1.661,2.061l-58.285,6.275L524.922,189.121z"/>
<path style="fill:#421F35;" d="M579.809,200.734l-0.351-0.032l-28.504-5.391c-1.014-0.193-1.681-1.172-1.491-2.188
	c0.193-1.016,1.172-1.666,2.188-1.491l28.504,5.391c1.013,0.193,1.681,1.172,1.491,2.188
	C581.475,200.108,580.691,200.734,579.809,200.734z"/>
<path style="fill:#421F35;" d="M313.515,1572.56c-0.719,0-1.403-0.414-1.713-1.116c-0.417-0.945,0.012-2.051,0.957-2.465
	c16.146-7.118,34.463-8.667,51.576-4.341c1.001,0.253,1.608,1.267,1.357,2.271c-0.254,1.004-1.289,1.608-2.273,1.354
	c-16.309-4.112-33.766-2.641-49.15,4.136L313.515,1572.56z"/>
<path style="fill:#421F35;" d="M293.247,1665.369l-0.809-0.185c-0.931-0.449-1.323-1.564-0.875-2.495
	c19.454-40.497,46.441-83.566,99.106-95.942c1.013-0.244,2.015,0.385,2.251,1.393c0.236,1.008-0.387,2.012-1.393,2.251
	c-51.13,12.01-77.52,54.216-96.592,93.914C294.613,1664.978,293.946,1665.369,293.247,1665.369z"/>
<path style="fill:#421F35;" d="M729.721,1824.369l-1.079-0.346c-0.843-0.595-1.043-1.764-0.444-2.607
	c29.345-41.369,52.928-86.538,70.095-134.251c10.443-29.013,18.697-59.547,26.68-89.077
	c15.393-56.945,31.311-115.824,63.595-166.158c0.556-0.877,1.713-1.115,2.585-0.565c0.87,0.556,1.121,1.715,0.563,2.582
	c-31.971,49.851-47.812,108.448-63.13,165.115c-8.002,29.603-16.278,60.215-26.77,89.369c-17.284,48.029-41.026,93.5-70.568,135.147
	C730.886,1824.097,730.308,1824.369,729.721,1824.369z"/>
<path style="fill:#421F35;" d="M411.076,1822.64c-0.465,0-0.933-0.171-1.296-0.521c-0.745-0.716-0.77-1.9-0.054-2.646
	c50.965-53.125,81.294-122.645,110.624-189.87c6.665-15.274,13.554-31.064,20.565-46.383c10.183-22.236,21.749-45.218,41.188-60.36
	c0.814-0.643,1.988-0.492,2.626,0.326c0.636,0.814,0.489,1.993-0.327,2.626c-18.772,14.626-30.097,37.15-40.087,58.967
	c-6.997,15.284-13.878,31.06-20.536,46.319c-29.462,67.528-59.927,137.36-111.354,190.967
	C412.058,1822.445,411.568,1822.64,411.076,1822.64z"/>
<path style="fill:#421F35;" d="M568.326,1599.347l-0.629-0.107c-0.974-0.351-1.481-1.418-1.133-2.392
	c11.072-31.035,27.393-59.596,48.511-84.891c0.668-0.789,1.852-0.891,2.636-0.239c0.794,0.662,0.899,1.842,0.239,2.636
	c-20.836,24.955-36.938,53.135-47.864,83.751C569.814,1598.869,569.095,1599.347,568.326,1599.347z"/>
<path style="fill:#421F35;" d="M393.241,1805.68l-1.077-0.341c-0.843-0.594-1.045-1.764-0.451-2.606
	c14.48-20.526,27.556-42.31,38.867-64.746c0.463-0.92,1.589-1.301,2.514-0.828c0.923,0.468,1.294,1.594,0.828,2.514
	c-11.396,22.597-24.568,44.541-39.149,65.213C394.408,1805.402,393.831,1805.68,393.241,1805.68z"/>
<path style="fill:#421F35;" d="M711.349,1790.411l-1.14-0.39c-0.819-0.629-0.97-1.803-0.339-2.621
	c17.379-22.567,32.151-47.176,43.902-73.13c0.429-0.94,1.537-1.359,2.478-0.936c0.94,0.429,1.359,1.535,0.933,2.475
	c-11.873,26.222-26.794,51.074-44.351,73.871C712.464,1790.162,711.911,1790.411,711.349,1790.411z"/>
<path style="fill:#421F35;" d="M836.703,1642.883l-0.424-0.048c-1.006-0.234-1.634-1.238-1.401-2.246
	c12.551-54.251,30.334-107.581,52.855-158.504c0.417-0.95,1.53-1.384,2.468-0.955c0.945,0.419,1.371,1.52,0.952,2.465
	c-22.426,50.714-40.134,103.815-52.631,157.842C838.323,1642.299,837.553,1642.883,836.703,1642.883z"/>
<path style="fill:#421F35;" d="M713.599,1563.887l-0.553-0.083c-0.986-0.307-1.54-1.354-1.235-2.338
	c9.752-31.542,20.855-63.099,33.006-93.793c0.38-0.965,1.461-1.427,2.429-1.052c0.96,0.38,1.43,1.466,1.05,2.426
	c-12.114,30.606-23.186,62.071-32.909,93.52C715.139,1563.371,714.398,1563.887,713.599,1563.887z"/>
<path style="fill:#421F35;" d="M727.512,1560.238l-0.609-0.102c-0.977-0.336-1.496-1.398-1.159-2.378l14.092-40.95
	c0.336-0.974,1.408-1.481,2.378-1.16c0.977,0.336,1.496,1.398,1.159,2.378l-14.093,40.95
	C729.015,1559.751,728.289,1560.238,727.512,1560.238z"/>
<path style="fill:#421F35;" d="M972.255,1778.133l-0.485-0.063c-0.999-0.268-1.59-1.296-1.323-2.29
	c14.202-52.955,14.231-108.94,0.087-161.905c-0.265-0.999,0.327-2.022,1.326-2.29c1.011-0.258,2.024,0.326,2.29,1.325
	c14.314,53.598,14.282,110.251-0.088,163.834C973.838,1777.583,973.083,1778.133,972.255,1778.133z"/>
<path style="fill:#421F35;" d="M961.309,1716.716l-0.112-0.005c-1.031-0.058-1.82-0.945-1.759-1.978l1.776-30.232
	c0.061-1.033,0.936-1.939,1.978-1.754c1.03,0.058,1.82,0.945,1.759,1.978l-1.776,30.231
	C963.117,1715.95,962.291,1716.716,961.309,1716.716z"/>
<path style="fill:#421F35;" d="M369.167,1542.445c-0.485,0-0.967-0.185-1.335-0.56c-9.815-9.988-20.775-18.875-32.568-26.407
	c-0.872-0.56-1.128-1.715-0.57-2.587c0.553-0.863,1.713-1.13,2.582-0.57c12.034,7.688,23.21,16.75,33.225,26.943
	c0.724,0.736,0.714,1.92-0.024,2.646C370.114,1542.265,369.639,1542.445,369.167,1542.445z"/>
<path style="fill:#421F35;" d="M435.994,1318.377c-0.982,0-1.807-0.765-1.866-1.759c-1.26-21.34-1.036-42.967,0.665-64.282
	c0.085-1.028,0.994-1.798,2.015-1.715c1.03,0.083,1.797,0.984,1.717,2.017c-1.691,21.14-1.912,42.592-0.66,63.756
	c0.061,1.033-0.726,1.92-1.759,1.978L435.994,1318.377z"/>
<path style="fill:#421F35;" d="M423.415,1322.826c-0.906,0-1.703-0.663-1.846-1.584l-5.486-35.542
	c-0.159-1.023,0.543-1.978,1.564-2.139c1.006-0.146,1.976,0.545,2.134,1.564l5.486,35.542c0.158,1.023-0.543,1.978-1.564,2.139
	L423.415,1322.826z"/>
<path style="fill:#421F35;" d="M663.689,1424.633c-0.609,0-1.206-0.297-1.564-0.843c-63.786-96.833-111.013-202.821-140.37-315.015
	c-0.26-0.999,0.336-2.022,1.338-2.28c0.996-0.264,2.022,0.331,2.282,1.334c29.255,111.8,76.314,217.413,139.873,313.905
	c0.57,0.862,0.331,2.022-0.533,2.592L663.689,1424.633z"/>
<path style="fill:#421F35;" d="M695.151,1439.546c-0.577,0-1.145-0.263-1.51-0.765c-17.04-23.22-31.077-48.565-41.722-75.328
	c-0.38-0.959,0.087-2.046,1.047-2.431c0.96-0.365,2.047,0.088,2.431,1.048c10.526,26.47,24.407,51.532,41.259,74.499
	c0.612,0.833,0.432,2.003-0.402,2.616L695.151,1439.546z"/>
<path style="fill:#421F35;" d="M529.193,1503.332c-0.677,0-1.33-0.371-1.664-1.009c-10.136-19.566-19.13-39.985-26.731-60.697
	c-0.356-0.969,0.142-2.042,1.111-2.397c0.982-0.351,2.046,0.137,2.402,1.111c7.547,20.56,16.478,40.833,26.541,60.258
	c0.475,0.921,0.117,2.047-0.802,2.524L529.193,1503.332z"/>
<path style="fill:#421F35;" d="M546.985,1496.214c-0.677,0-1.332-0.37-1.663-1.013c-5.901-11.406-10.436-23.513-13.479-35.985
	c-0.246-1.004,0.37-2.017,1.374-2.261c0.984-0.248,2.015,0.37,2.26,1.374c2.972,12.185,7.403,24.01,13.167,35.157
	c0.475,0.916,0.117,2.047-0.802,2.519L546.985,1496.214z"/>
<path style="fill:#421F35;" d="M563.025,1049.851c-0.648,0-1.274-0.336-1.622-0.935c-14.363-24.828-26.899-50.967-37.262-77.69
	c-0.373-0.965,0.105-2.047,1.067-2.422c0.974-0.38,2.051,0.107,2.422,1.067c10.292,26.543,22.745,52.512,37.013,77.174
	c0.516,0.892,0.212,2.036-0.682,2.553L563.025,1049.851z"/>
<path style="fill:#421F35;" d="M560.333,1020.521c-0.692,0-1.357-0.385-1.683-1.047c-6.965-14.197-13.271-28.916-18.745-43.742
	c-0.358-0.969,0.137-2.047,1.106-2.402c0.977-0.351,2.047,0.136,2.402,1.106c5.432,14.704,11.688,29.306,18.6,43.391
	c0.453,0.925,0.07,2.046-0.858,2.504L560.333,1020.521z"/>
<path style="fill:#421F35;" d="M777.685,1265.554c-0.59,0-1.169-0.278-1.533-0.794c-18.051-25.676-34.553-52.808-49.047-80.648
	c-0.478-0.916-0.122-2.047,0.794-2.524c0.928-0.468,2.048-0.122,2.523,0.799c14.419,27.693,30.833,54.679,48.789,80.219
	c0.595,0.848,0.392,2.012-0.453,2.606L777.685,1265.554z"/>
<path style="fill:#421F35;" d="M750.91,1242.504c-0.587,0-1.164-0.273-1.53-0.789c-7.291-10.285-14.115-21.111-20.277-32.166
	c-0.502-0.901-0.178-2.041,0.723-2.543c0.906-0.506,2.044-0.18,2.545,0.721c6.098,10.938,12.848,21.646,20.063,31.825
	c0.597,0.843,0.397,2.012-0.445,2.606L750.91,1242.504z"/>
<path style="fill:#421F35;" d="M837.76,1370.192l-1.12-0.375c-0.826-0.619-0.994-1.793-0.373-2.621
	c19.34-25.734,37.691-52.721,54.544-80.214c0.541-0.877,1.693-1.16,2.572-0.614c0.882,0.536,1.157,1.69,0.619,2.572
	c-16.913,27.591-35.332,54.675-54.743,80.507C838.89,1369.934,838.33,1370.192,837.76,1370.192z"/>
<path style="fill:#421F35;" d="M870.693,1353.978l-0.831-0.195c-0.925-0.463-1.303-1.583-0.843-2.509
	c4.709-9.471,10.061-18.757,15.902-27.6c0.572-0.853,1.727-1.096,2.592-0.526c0.862,0.57,1.101,1.73,0.531,2.592
	c-5.759,8.711-11.033,17.866-15.674,27.201C872.042,1353.598,871.382,1353.978,870.693,1353.978z"/>
<path style="fill:#421F35;" d="M1021.928,1249.12l-0.989-0.283c-0.877-0.55-1.143-1.7-0.595-2.577
	c17.289-27.688,33.917-56.239,49.423-84.848c0.492-0.906,1.622-1.238,2.536-0.755c0.908,0.492,1.245,1.632,0.753,2.538
	c-15.542,28.677-32.21,57.291-49.54,85.043C1023.163,1248.809,1022.552,1249.12,1021.928,1249.12z"/>
<path style="fill:#421F35;" d="M1036.001,1206.938l-0.94-0.254c-0.892-0.521-1.193-1.666-0.674-2.558
	c5.367-9.208,10.131-18.894,14.163-28.789c0.39-0.96,1.481-1.413,2.438-1.028c0.957,0.39,1.415,1.481,1.026,2.441
	c-4.098,10.056-8.94,19.903-14.392,29.257C1037.273,1206.607,1036.647,1206.938,1036.001,1206.938z"/>
<path style="fill:#421F35;" d="M1076.588,951.001l-0.799-0.181c-0.933-0.443-1.332-1.559-0.889-2.495
	c5.449-11.493,10.229-23.454,14.205-35.556c0.324-0.979,1.366-1.52,2.363-1.194c0.982,0.322,1.515,1.379,1.193,2.363
	c-4.024,12.248-8.862,24.355-14.38,35.995C1077.962,950.607,1077.29,951.001,1076.588,951.001z"/>
<path style="fill:#421F35;" d="M1095.402,949.106l-0.171-0.01c-1.031-0.092-1.788-0.999-1.696-2.032l2.685-29.661
	c0.093-1.028,1.011-1.9,2.032-1.691c1.03,0.093,1.788,0.999,1.695,2.032l-2.684,29.661
	C1097.175,948.375,1096.359,949.106,1095.402,949.106z"/>
<path style="fill:#421F35;" d="M608.087,959.167c-0.881,0-1.666-0.629-1.836-1.525c-2.327-12.385-4.387-24.97-6.12-37.408
	c-0.141-1.023,0.572-1.969,1.596-2.11c1.043-0.171,1.968,0.57,2.112,1.594c1.722,12.38,3.773,24.906,6.09,37.233
	c0.189,1.013-0.478,1.993-1.494,2.183L608.087,959.167z"/>
<path style="fill:#421F35;" d="M587.502,943.781l-0.168-0.01c-1.031-0.088-1.791-0.999-1.698-2.027l2.592-29.081
	c0.09-1.033,0.984-1.876,2.029-1.695c1.03,0.087,1.791,0.999,1.698,2.026l-2.592,29.082
	C589.276,943.05,588.459,943.781,587.502,943.781z"/>
<path style="fill:#421F35;" d="M1008.679,1601.159c-0.709,0-1.389-0.405-1.703-1.097l-21.596-47.303
	c-0.429-0.935-0.014-2.047,0.926-2.475c0.935-0.424,2.053-0.02,2.479,0.925l21.596,47.303c0.429,0.935,0.015,2.046-0.926,2.475
	L1008.679,1601.159z"/>
<path style="fill:#421F35;" d="M1024.138,1582.177c-0.604,0-1.196-0.292-1.557-0.829c-8.741-13.057-18.234-25.797-28.222-37.875
	c-0.658-0.799-0.545-1.978,0.251-2.636c0.792-0.657,1.971-0.55,2.634,0.249c10.065,12.176,19.637,25.024,28.446,38.178
	c0.575,0.862,0.346,2.022-0.514,2.597L1024.138,1582.177z"/>
<path style="fill:#421F35;" d="M1245.916,1889.232c-0.67,0-1.318-0.361-1.654-0.994c-70.692-133.154-143.79-270.845-175.535-421.505
	c-0.212-1.008,0.436-2.003,1.447-2.217c0.982-0.185,2,0.434,2.215,1.447c31.634,150.144,104.607,287.595,175.176,420.521
	c0.484,0.911,0.139,2.046-0.775,2.528L1245.916,1889.232z"/>
<path style="fill:#421F35;" d="M1079.911,1559.624c-0.811,0-1.559-0.531-1.798-1.35c-7.137-24.618-13.588-49.773-19.169-74.757
	c-0.224-1.009,0.412-2.012,1.42-2.236c0.987-0.214,2.01,0.41,2.234,1.418c5.561,24.916,11.993,49.988,19.11,74.534
	c0.288,0.994-0.285,2.031-1.276,2.319L1079.911,1559.624z"/>
<path style="fill:#421F35;" d="M1206.744,1883.273c-0.631,0-1.247-0.321-1.6-0.896c-20.015-32.877-38.402-67.235-54.65-102.129
	c-0.436-0.935-0.031-2.051,0.906-2.484c0.931-0.453,2.046-0.034,2.485,0.906c16.192,34.768,34.514,69.004,54.456,101.759
	c0.538,0.882,0.258,2.036-0.626,2.572L1206.744,1883.273z"/>
<path style="fill:#421F35;" d="M1029.938,1972.525l-1.065-0.331c-43.613-30.256-93.045-64.546-123.291-113.106
	c-0.546-0.877-0.278-2.032,0.599-2.577c0.877-0.541,2.029-0.273,2.577,0.599c29.837,47.907,78.933,81.958,122.248,112.005
	c0.848,0.589,1.06,1.759,0.471,2.606C1031.114,1972.242,1030.532,1972.525,1029.938,1972.525z"/>
<path style="fill:#421F35;" d="M945.918,1878.537c-0.521,0-1.04-0.219-1.411-0.643c-9.291-10.655-19.22-20.979-29.51-30.69
	c-0.753-0.706-0.787-1.89-0.078-2.645c0.709-0.755,1.895-0.78,2.646-0.073c10.377,9.788,20.392,20.205,29.763,30.953
	c0.68,0.775,0.597,1.959-0.181,2.636L945.918,1878.537z"/>
<path style="fill:#421F35;" d="M980.279,1968.662l-0.977-0.278c-9.006-5.525-17.489-11.981-25.213-19.177
	c-0.755-0.706-0.797-1.89-0.093-2.645c0.704-0.76,1.893-0.794,2.646-0.093c7.539,7.031,15.822,13.33,24.618,18.728
	c0.88,0.541,1.155,1.691,0.617,2.573C981.524,1968.345,980.907,1968.662,980.279,1968.662z"/>
<path style="fill:#421F35;" d="M746.747,1965.086l-1.133-0.385c-27.854-21.228-54.251-44.833-78.451-70.153
	c-0.714-0.745-0.687-1.929,0.058-2.646c0.746-0.716,1.93-0.692,2.646,0.063c24.066,25.179,50.314,48.648,78.017,69.764
	c0.821,0.624,0.979,1.798,0.353,2.621C747.87,1964.832,747.312,1965.086,746.747,1965.086z"/>
<path style="fill:#421F35;" d="M785.904,1966.206l-0.926-0.248c-10.921-6.232-21.41-13.423-31.176-21.369
	c-0.802-0.653-0.921-1.832-0.27-2.631c0.655-0.809,1.83-0.925,2.633-0.273c9.608,7.82,19.924,14.894,30.67,21.028
	c0.896,0.511,1.208,1.651,0.697,2.548C787.185,1965.865,786.554,1966.206,785.904,1966.206z"/>
<path style="fill:#421F35;" d="M673.251,1927.146c-0.479,0-0.957-0.181-1.323-0.551l-27.267-27.269
	c-0.731-0.726-0.731-1.915,0-2.646c0.731-0.731,1.915-0.735,2.645,0.005l27.267,27.269c0.731,0.726,0.731,1.915,0,2.646
	C674.208,1926.966,673.731,1927.146,673.251,1927.146z"/>
<path style="fill:#421F35;" d="M1176.094,711.927c-0.772,0-1.496-0.482-1.766-1.252l-22.475-64.034
	c-0.341-0.974,0.171-2.042,1.147-2.382c0.972-0.351,2.042,0.171,2.385,1.145l22.475,64.034c0.341,0.974-0.171,2.042-1.148,2.383
	L1176.094,711.927z"/>
<path style="fill:#421F35;" d="M1230.43,719.119c-0.572,0-1.137-0.263-1.503-0.755l-54.601-73.452
	c-0.616-0.828-0.446-2.002,0.385-2.616c0.829-0.619,2.003-0.438,2.617,0.385l54.602,73.452c0.616,0.828,0.446,2.003-0.385,2.616
	L1230.43,719.119z"/>
<path style="fill:#421F35;" d="M1684.661,670.675c-0.487,0-0.974-0.19-1.342-0.565c-0.719-0.74-0.704-1.924,0.039-2.646
	c10.409-10.124,21.861-19.274,34.034-27.191c0.872-0.56,2.029-0.316,2.589,0.551c0.563,0.862,0.317,2.022-0.548,2.587
	c-11.971,7.786-23.232,16.78-33.469,26.733C1685.601,670.5,1685.13,670.675,1684.661,670.675z"/>
<path style="fill:#421F35;" d="M1657.221,810.388c-0.516,0-1.03-0.215-1.401-0.629c-0.685-0.775-0.614-1.959,0.161-2.641
	l41.493-36.755c0.77-0.691,1.954-0.614,2.641,0.156c0.684,0.775,0.614,1.959-0.161,2.641l-41.493,36.755L1657.221,810.388z"/>
<path style="fill:#421F35;" d="M1671.452,824.619c-0.463,0-0.926-0.17-1.286-0.511c-0.75-0.711-0.782-1.895-0.073-2.646
	l21.34-22.523c0.709-0.76,1.898-0.78,2.646-0.073c0.75,0.711,0.782,1.895,0.073,2.646l-21.34,22.524
	C1672.444,824.424,1671.947,824.619,1671.452,824.619z"/>
<path style="fill:#421F35;" d="M1711.757,904.049l-1.028-0.307c-0.862-0.57-1.101-1.73-0.531-2.592
	c7.032-10.67,12.954-22.119,17.6-34.037c0.378-0.96,1.466-1.432,2.424-1.062c0.962,0.375,1.44,1.462,1.065,2.427
	c-4.743,12.161-10.787,23.844-17.966,34.728C1712.963,903.752,1712.366,904.049,1711.757,904.049z"/>
<path style="fill:#421F35;" d="M1733.099,911.162l-0.614-0.102c-0.977-0.341-1.493-1.408-1.152-2.382l9.484-27.269
	c0.338-0.979,1.415-1.481,2.38-1.155c0.977,0.341,1.493,1.408,1.152,2.382l-9.484,27.27
	C1734.597,910.68,1733.874,911.162,1733.099,911.162z"/>
<path style="fill:#421F35;" d="M1176.11,1218.377l-1.203-0.438c-0.792-0.663-0.894-1.842-0.229-2.636
	c9.228-11.001,17.447-22.938,24.429-35.479c0.497-0.902,1.637-1.218,2.545-0.726c0.902,0.507,1.225,1.642,0.724,2.548
	c-7.096,12.745-15.45,24.877-24.833,36.064C1177.175,1218.148,1176.644,1218.377,1176.11,1218.377z"/>
<path style="fill:#421F35;" d="M1192.505,1230.06l-1.242-0.472c-0.772-0.687-0.843-1.871-0.156-2.641l9.483-10.665
	c0.689-0.77,1.873-0.838,2.641-0.156c0.772,0.687,0.843,1.871,0.156,2.641l-9.484,10.665
	C1193.533,1229.846,1193.019,1230.06,1192.505,1230.06z"/>
<path style="fill:#421F35;" d="M1244.875,1319.366c-0.674,0-1.325-0.365-1.659-1.003c-0.48-0.911-0.127-2.047,0.787-2.524
	c11.744-6.158,22.668-13.822,32.47-22.777c0.762-0.702,1.944-0.643,2.643,0.117c0.696,0.765,0.643,1.944-0.119,2.641
	c-10.039,9.174-21.228,17.023-33.255,23.333L1244.875,1319.366z"/>
<path style="fill:#421F35;" d="M1252.966,1336.76c-0.726,0-1.415-0.424-1.72-1.135c-0.407-0.95,0.031-2.046,0.981-2.456
	l16.597-7.113c0.947-0.4,2.049,0.029,2.458,0.984c0.406,0.95-0.032,2.047-0.982,2.456l-16.597,7.113L1252.966,1336.76z"/>
<path style="fill:#421F35;" d="M1181.67,1451.654l-0.992-0.288c-0.875-0.545-1.14-1.7-0.592-2.577
	c9.639-15.391,20.543-30.173,32.407-43.936c0.674-0.784,1.859-0.858,2.638-0.195c0.784,0.677,0.872,1.856,0.198,2.641
	c-11.742,13.618-22.534,28.248-32.071,43.479C1182.902,1451.342,1182.293,1451.654,1181.67,1451.654z"/>
<path style="fill:#421F35;" d="M1196.203,1455.449c-0.475,0-0.95-0.18-1.316-0.541c-0.733-0.726-0.741-1.91-0.014-2.646
	l28.272-28.629c0.726-0.735,1.91-0.74,2.646-0.015c0.733,0.726,0.743,1.91,0.014,2.646l-28.272,28.629
	C1197.168,1455.264,1196.685,1455.449,1196.203,1455.449z"/>
<path style="fill:#421F35;" d="M1748.638,1459.678l-0.606-0.103c-20.692-7.074-40.237-18.548-56.514-33.169
	c-0.77-0.692-0.833-1.876-0.141-2.646c0.692-0.76,1.88-0.828,2.641-0.141c15.908,14.29,35.006,25.5,55.228,32.419
	c0.977,0.331,1.498,1.398,1.165,2.372C1750.144,1459.191,1749.416,1459.678,1748.638,1459.678z"/>
<path style="fill:#421F35;" d="M1753.304,1435.128c-0.614,0-1.213-0.302-1.571-0.853c-12.531-19.318-23.788-39.718-33.454-60.629
	c-0.433-0.936-0.024-2.051,0.914-2.485c0.933-0.438,2.044-0.024,2.483,0.916c9.593,20.75,20.762,40.989,33.196,60.161
	c0.563,0.867,0.316,2.026-0.551,2.587L1753.304,1435.128z"/>
<path style="fill:#421F35;" d="M1568.529,1248.828l-1.252-0.483c-80.234-72.302-140.996-164.122-199.756-252.916
	c-32.071-48.462-65.235-98.577-101.221-145.023c-0.633-0.814-0.484-1.993,0.334-2.626c0.821-0.629,1.995-0.482,2.624,0.336
	c36.073,46.558,69.274,96.731,101.384,145.247c58.631,88.604,119.259,180.219,199.14,252.204c0.767,0.692,0.829,1.876,0.139,2.641
	C1569.55,1248.619,1569.041,1248.828,1568.529,1248.828z"/>
<path style="fill:#421F35;" d="M1327.913,912.156c-0.57,0-1.135-0.258-1.501-0.75l-68.933-92.346
	c-0.619-0.828-0.448-2.003,0.38-2.621c0.828-0.614,2.002-0.449,2.616,0.38l68.933,92.346c0.619,0.828,0.448,2.003-0.38,2.621
	L1327.913,912.156z"/>
<path style="fill:#421F35;" d="M1531.484,1264.526c-0.451,0-0.904-0.161-1.262-0.492l-46.419-42.475
	c-0.762-0.696-0.816-1.88-0.119-2.641c0.699-0.765,1.881-0.823,2.643-0.117l46.419,42.475c0.762,0.696,0.816,1.88,0.119,2.641
	C1532.495,1264.321,1531.991,1264.526,1531.484,1264.526z"/>
<path style="fill:#421F35;" d="M740.713,1095.347c-0.629,0-1.24-0.317-1.593-0.887c-0.543-0.882-0.273-2.032,0.607-2.577
	c17.237-10.651,35.062-21.666,47.642-37.925c0.631-0.819,1.805-0.965,2.624-0.336c0.816,0.634,0.967,1.807,0.334,2.626
	c-12.994,16.794-31.927,28.497-48.631,38.821L740.713,1095.347z"/>
<path style="fill:#421F35;" d="M952.859,1095.791l-0.962-0.268c-19.133-11.503-35.946-26.144-49.966-43.508
	c-0.651-0.804-0.526-1.983,0.277-2.631c0.807-0.648,1.981-0.526,2.631,0.282c13.746,17.019,30.229,31.371,48.986,42.651
	c0.885,0.531,1.172,1.681,0.639,2.568C954.113,1095.469,953.494,1095.791,952.859,1095.791z"/>
<path style="fill:#421F35;" d="M650.201,905.788c-0.663,0-1.303-0.351-1.644-0.974c-3.328-6.076-5.885-12.57-7.605-19.299
	c-0.255-0.999,0.348-2.022,1.35-2.275c1.004-0.244,2.02,0.346,2.275,1.349c1.642,6.426,4.085,12.629,7.264,18.431
	c0.495,0.906,0.164,2.042-0.743,2.538L650.201,905.788z"/>
<path style="fill:#421F35;" d="M676.262,866.68c-0.67,0-1.318-0.361-1.654-0.994c-5.252-9.871-9.359-20.361-12.202-31.162
	c-0.263-0.999,0.334-2.022,1.335-2.285c0.991-0.268,2.022,0.336,2.285,1.33c2.77,10.528,6.767,20.74,11.885,30.363
	c0.485,0.911,0.139,2.042-0.772,2.529L676.262,866.68z"/>
<path style="fill:#421F35;" d="M660.844,860.76c-0.75,0-1.459-0.453-1.744-1.199c-2.197-5.68-3.491-11.649-3.844-17.734
	c-0.058-1.028,0.728-1.915,1.759-1.974c1.089-0.136,1.917,0.726,1.978,1.759c0.331,5.695,1.54,11.279,3.596,16.604
	c0.373,0.96-0.107,2.047-1.069,2.417L660.844,860.76z"/>
<path style="fill:#421F35;" d="M1014.101,870.266l-0.59-0.098c-0.979-0.321-1.51-1.383-1.186-2.363
	c2.302-6.938,5.108-13.808,8.339-20.414c0.453-0.926,1.579-1.316,2.502-0.858c0.928,0.453,1.313,1.574,0.86,2.505
	c-3.157,6.455-5.9,13.164-8.148,19.946C1015.616,869.768,1014.885,870.266,1014.101,870.266z"/>
<path style="fill:#421F35;" d="M1024.754,864.926l-0.604-0.102c-0.977-0.331-1.501-1.393-1.167-2.373
	c1.131-3.318,1.9-6.777,2.285-10.27c0.112-1.028,1.023-1.72,2.063-1.657c1.028,0.117,1.769,1.038,1.654,2.066
	c-0.414,3.766-1.243,7.489-2.461,11.069C1026.259,864.439,1025.533,864.926,1024.754,864.926z"/>
<path style="fill:#421F35;" d="M1027.633,915.255l-1.04-0.316c-0.858-0.575-1.087-1.74-0.512-2.597
	c6.202-9.242,10.811-19.386,13.698-30.148c0.268-0.989,1.291-1.594,2.292-1.321c0.999,0.268,1.591,1.296,1.323,2.295
	c-2.994,11.152-7.773,21.671-14.204,31.259C1028.829,914.962,1028.238,915.255,1027.633,915.255z"/>
<path style="fill:#421F35;" d="M904.746,997.281c-0.614,0-1.215-0.302-1.573-0.857c-0.56-0.868-0.312-2.022,0.555-2.582
	c36.227-23.42,67.476-55.133,90.37-91.712c0.546-0.872,1.708-1.135,2.577-0.595c0.877,0.551,1.142,1.705,0.594,2.582
	c-23.182,37.037-54.826,69.15-91.51,92.862L904.746,997.281z"/>
<path style="fill:#421F35;" d="M937.144,988.969c-0.58,0-1.152-0.268-1.518-0.775c-0.607-0.838-0.419-2.007,0.419-2.611
	c10.796-7.815,20.163-17.305,27.839-28.219c0.59-0.843,1.762-1.053,2.607-0.453c0.845,0.595,1.048,1.759,0.453,2.607
	c-7.915,11.25-17.573,21.043-28.706,29.096L937.144,988.969z"/>
<path style="fill:#421F35;" d="M775.251,987.547l-0.979-0.278c-21.486-13.252-41.198-29.257-58.595-47.572
	c-0.711-0.745-0.68-1.929,0.068-2.641c0.748-0.721,1.932-0.686,2.646,0.068c17.172,18.076,36.633,33.876,57.844,46.957
	c0.879,0.546,1.152,1.696,0.612,2.577C776.491,987.23,775.879,987.547,775.251,987.547z"/>
<path style="fill:#421F35;" d="M757.463,989.33l-0.938-0.253c-13.693-7.966-26.421-17.574-37.832-28.555
	c-0.743-0.716-0.765-1.905-0.048-2.646c0.716-0.75,1.905-0.76,2.645-0.053c11.194,10.782,23.683,20.205,37.116,28.019
	c0.894,0.521,1.196,1.666,0.677,2.558C758.734,988.999,758.108,989.33,757.463,989.33z"/>
<path style="fill:#421F35;" d="M726.637,1071.756c-0.451,0-0.901-0.161-1.262-0.487c-7.6-6.938-14.339-14.787-20.029-23.332
	c-0.572-0.863-0.341-2.022,0.519-2.597c0.865-0.57,2.019-0.336,2.594,0.521c5.522,8.293,12.063,15.913,19.44,22.641
	c0.762,0.697,0.816,1.881,0.119,2.646C727.651,1071.552,727.144,1071.756,726.637,1071.756z"/>
<path style="fill:#421F35;" d="M959.645,1077.208l-1.145-0.395c-0.816-0.633-0.964-1.807-0.329-2.626
	c5.798-7.455,11.089-15.386,15.727-23.576c0.506-0.901,1.654-1.218,2.548-0.706c0.901,0.507,1.216,1.651,0.706,2.548
	c-4.726,8.346-10.119,16.434-16.029,24.034C960.756,1076.959,960.203,1077.208,959.645,1077.208z"/>
<path style="fill:#421F35;" d="M791.237,1088.409l-0.794-0.181c-0.935-0.439-1.338-1.554-0.897-2.49l9.496-20.151
	c0.439-0.931,1.559-1.335,2.49-0.891c0.935,0.438,1.337,1.554,0.896,2.49l-9.496,20.151
	C792.613,1088.015,791.94,1088.409,791.237,1088.409z"/>
<path style="fill:#421F35;" d="M801.287,1093.73l-0.456-0.054c-1.004-0.253-1.612-1.267-1.362-2.271l4.148-16.599
	c0.251-1.008,1.277-1.593,2.268-1.364c1.001,0.253,1.612,1.267,1.361,2.27l-4.148,16.599
	C802.888,1093.164,802.126,1093.73,801.287,1093.73z"/>
<path style="fill:#421F35;" d="M888.36,1096.702c-0.887,0-1.676-0.634-1.839-1.54l-4.061-22.538
	c-0.183-1.018,0.492-1.988,1.511-2.173c1.028-0.171,1.988,0.492,2.173,1.51l4.061,22.538c0.183,1.018-0.492,1.988-1.511,2.173
	L888.36,1096.702z"/>
<path style="fill:#421F35;" d="M898.537,1092.536c-0.872,0-1.652-0.614-1.832-1.501l-5.167-25.525
	c-0.205-1.013,0.451-1.998,1.464-2.202c0.994-0.234,1.998,0.448,2.205,1.462l5.167,25.525c0.204,1.013-0.451,1.998-1.464,2.202
	L898.537,1092.536z"/>
<path style="fill:#421F35;" d="M1738.027,783.128l-0.624-0.107c-0.974-0.346-1.486-1.413-1.14-2.387
	c3.471-9.807,7.157-19.678,10.952-29.34c3.357-8.536,6.782-16.813,11.778-24.258c5.727-8.521,12.87-14.704,20.658-17.876
	c11.966-4.867,25.591-2.885,37.42-0.634c1.016,0.19,1.683,1.169,1.491,2.188c-0.195,1.018-1.199,1.691-2.188,1.486
	c-11.824-2.246-24.293-4.058-35.311,0.429c-7.096,2.889-13.654,8.594-18.964,16.492c-4.787,7.133-8.124,15.206-11.401,23.542
	c-3.781,9.617-7.452,19.449-10.909,29.218C1739.518,782.651,1738.797,783.128,1738.027,783.128z"/>
<path style="fill:#421F35;" d="M1743.411,817.384l-0.439-0.053c-1.006-0.239-1.625-1.247-1.384-2.255
	c2.843-11.849,6.359-23.683,10.453-35.162c5.096-14.3,11.993-30.475,24.492-42.012c11.282-10.417,30.02-17.642,46.446-10.324
	c0.943,0.424,1.366,1.53,0.945,2.47c-0.422,0.95-1.528,1.35-2.47,0.95c-14.884-6.655-32.005,0.068-42.383,9.652
	c-11.902,10.991-18.563,26.65-23.508,40.521c-4.046,11.357-7.525,23.054-10.336,34.782
	C1745.021,816.809,1744.256,817.384,1743.411,817.384z"/>
<path style="fill:#421F35;" d="M1857.116,729.691c-0.624,0-1.233-0.312-1.589-0.877c-1.578-2.514-3.21-5.116-5.357-7.05
	c-2.214-1.993-4.797-2.991-7.098-2.782c-1.009,0.083-1.942-0.648-2.044-1.676c-0.102-1.028,0.651-1.944,1.678-2.047
	c3.355-0.326,6.979,1.033,9.969,3.727c2.533,2.275,4.307,5.106,6.024,7.839c0.548,0.877,0.282,2.032-0.592,2.577L1857.116,729.691z"
	/>
<path style="fill:#421F35;" d="M1855.281,711.211c-0.533,0-1.062-0.229-1.432-0.667c-4.517-5.374-9.057-10.299-14.911-11.527
	c-2.346-0.492-5.042-0.395-8.022,0.287c-1.003,0.243-2.012-0.395-2.244-1.403c-0.229-1.008,0.4-2.012,1.406-2.241
	c3.52-0.809,6.755-0.911,9.629-0.307c7.021,1.476,12.049,6.889,17.006,12.784c0.665,0.789,0.563,1.968-0.229,2.636L1855.281,711.211
	z"/>
<path style="fill:#421F35;" d="M1785.988,810.699l-0.899-0.234c-0.906-0.497-1.235-1.632-0.738-2.538
	c3.798-6.899,7.34-12.346,11.147-17.14c5.934-7.464,12.451-13.072,19.371-16.663c8.278-4.297,17.303-5.734,25.406-4.054
	c1.011,0.21,1.661,1.199,1.452,2.212c-0.212,1.009-1.201,1.637-2.212,1.452c-7.265-1.52-15.408-0.19-22.921,3.713
	c-6.45,3.347-12.562,8.619-18.168,15.669c-3.673,4.623-7.104,9.905-10.796,16.614
	C1787.289,810.349,1786.648,810.699,1785.988,810.699z"/>
<path style="fill:#421F35;" d="M1861.291,763.547c-0.823,0-1.576-0.545-1.805-1.378c-1.035-3.776-2.246-7.732-4.653-10.899
	c-1.91-2.514-5.269-5.052-9.147-4.741c-1.053,0.176-1.937-0.667-2.03-1.695c-0.092-1.028,0.667-1.939,1.698-2.027
	c4.482-0.4,9.247,1.973,12.458,6.197c2.809,3.698,4.2,8.224,5.284,12.18c0.273,0.994-0.314,2.022-1.311,2.295L1861.291,763.547z"/>
<path style="fill:#421F35;" d="M1796.136,919.62c-0.899,0-1.693-0.653-1.844-1.569c-6.797-41.437,2.56-85.306,25.676-120.36
	c0.565-0.863,1.732-1.111,2.592-0.536c0.863,0.57,1.101,1.729,0.531,2.592c-22.602,34.28-31.754,77.179-25.106,117.7
	c0.168,1.018-0.523,1.983-1.544,2.148L1796.136,919.62z"/>
<path style="fill:#421F35;" d="M1793.162,854.261l-0.151-0.005c-1.031-0.083-1.798-0.984-1.718-2.013
	c0.957-12.039,2.268-24.195,3.893-36.131c0.137-1.023,1.077-1.788,2.107-1.599c1.023,0.137,1.739,1.082,1.6,2.105
	c-1.615,11.864-2.919,23.951-3.869,35.917C1794.948,853.515,1794.127,854.261,1793.162,854.261z"/>
<path style="fill:#421F35;" d="M1790.103,1020.584l-0.97-0.273c-0.882-0.536-1.165-1.685-0.626-2.567
	c4.96-8.171,9.362-16.785,13.084-25.613c0.402-0.955,1.51-1.383,2.451-0.999c0.952,0.405,1.398,1.501,0.999,2.451
	c-3.795,8.999-8.28,17.778-13.337,26.1C1791.353,1020.263,1790.736,1020.584,1790.103,1020.584z"/>
<path style="fill:#421F35;" d="M1796.195,1047.182l-0.765-0.166c-0.943-0.419-1.364-1.525-0.943-2.47l15.944-35.591
	c0.424-0.945,1.532-1.365,2.473-0.94c0.943,0.419,1.364,1.525,0.943,2.47l-15.944,35.591
	C1797.591,1046.772,1796.909,1047.182,1796.195,1047.182z"/>
<path style="fill:#421F35;" d="M1136.698,1396.34l-0.67-0.122c-0.964-0.37-1.447-1.457-1.077-2.421
	c6.938-18.076,10.638-36.838,13.342-52.804c0.96-5.652,1.664-11.109-0.246-15.766c-2.304-5.627-8.063-9.043-12.485-10.913
	c-2.653-1.12-5.488-2.021-8.229-2.894c-3.043-0.965-6.188-1.964-9.201-3.294c-0.947-0.414-1.376-1.52-0.96-2.465
	c0.419-0.94,1.53-1.379,2.465-0.955c2.831,1.242,5.881,2.212,8.828,3.147c2.821,0.896,5.742,1.822,8.553,3.011
	c5.072,2.149,11.703,6.134,14.492,12.94c2.283,5.574,1.525,11.61,0.47,17.812c-2.736,16.151-6.482,35.138-13.537,53.525
	C1138.159,1395.882,1137.45,1396.34,1136.698,1396.34z"/>
<path style="fill:#421F35;" d="M1099.129,1406.591l-0.962-0.268c-0.884-0.531-1.172-1.681-0.639-2.567
	c5.325-8.848,9.873-18.231,13.523-27.883c1.169-3.104,2.312-6.407,2.292-9.705c-0.054-8-6.921-14.227-12.784-17.13
	c-0.926-0.458-1.304-1.579-0.846-2.505c0.458-0.931,1.572-1.306,2.507-0.848c8.974,4.443,14.811,12.473,14.865,20.458
	c0.024,3.941-1.24,7.62-2.534,11.055c-3.727,9.861-8.378,19.445-13.817,28.487
	C1100.384,1406.27,1099.765,1406.591,1099.129,1406.591z"/>
<path style="fill:#421F35;" d="M1171.552,1362.83l-0.395-0.043c-1.011-0.215-1.654-1.208-1.438-2.217
	c2.974-13.881,4.027-28.097,3.123-42.256c-0.483-7.542-1.771-17.009-7.532-23.284c-3.457-3.771-8.377-6.207-12.719-8.195
	c-7.069-3.24-14.431-6.138-21.885-8.618c-0.982-0.322-1.513-1.384-1.186-2.363c0.327-0.984,1.389-1.535,2.366-1.184
	c7.583,2.519,15.074,5.466,22.265,8.765c4.673,2.139,9.99,4.78,13.917,9.062c6.553,7.138,7.988,17.423,8.507,25.583
	c0.925,14.5-0.149,29.057-3.197,43.269C1173.192,1362.231,1172.415,1362.83,1171.552,1362.83z"/>
<path style="fill:#421F35;" d="M1190.159,1313.915c-1.013,0-1.846-0.809-1.871-1.828c-0.341-14.387-1.21-27.084-8.441-36.77
	c-3.995-5.359-9.995-9.778-18.877-13.91c-7.756-3.61-15.932-6.314-24.297-8.044c-1.013-0.21-1.664-1.198-1.454-2.212
	c0.209-1.013,1.201-1.647,2.21-1.452c8.651,1.788,17.101,4.584,25.12,8.317c9.467,4.399,15.917,9.189,20.3,15.059
	c7.888,10.573,8.826,23.883,9.181,38.923c0.024,1.033-0.794,1.89-1.827,1.915H1190.159z"/>
<path style="fill:#421F35;" d="M1112.87,1332.204c-0.631,0-1.247-0.317-1.598-0.897c-2.1-3.435-4.684-6.539-7.681-9.223
	c-3.506-3.133-6.751-4.59-9.615-4.292c-2.66,0.258-5.174,2.007-7.388,3.547c-0.846,0.6-2.013,0.385-2.604-0.468
	c-0.592-0.848-0.383-2.012,0.465-2.602c2.465-1.715,5.532-3.849,9.164-4.2c3.956-0.37,8.158,1.369,12.473,5.228
	c3.271,2.928,6.09,6.314,8.378,10.061c0.538,0.882,0.26,2.032-0.621,2.572L1112.87,1332.204z"/>
<path style="fill:#421F35;" d="M1126.681,1289.125l-0.838-0.2c-4.719-2.378-8.646-3.703-12.363-4.171
	c-4.529-0.58-8.792,0.219-12.039,2.222c-0.884,0.551-2.031,0.263-2.575-0.614c-0.541-0.877-0.268-2.031,0.612-2.572
	c3.971-2.441,9.099-3.406,14.47-2.748c4.153,0.526,8.467,1.968,13.576,4.54c0.923,0.463,1.296,1.589,0.831,2.514
	C1128.025,1288.75,1127.365,1289.125,1126.681,1289.125z"/>
<path style="fill:#421F35;" d="M1129.838,1263.255l-1.11-0.366c-2.88-2.129-6.344-4.429-10.222-5.345
	c-3.854-0.906-7.615-0.219-10.066,1.866c-0.779,0.667-1.968,0.575-2.636-0.214c-0.67-0.789-0.572-1.968,0.214-2.641
	c3.355-2.85,8.344-3.83,13.35-2.655c4.534,1.077,8.4,3.625,11.586,5.978c0.831,0.614,1.006,1.788,0.393,2.616
	C1130.978,1262.991,1130.412,1263.255,1129.838,1263.255z"/>
<path style="fill:#421F35;" d="M1114.688,1236.555c-0.599,0-1.186-0.287-1.547-0.819c-0.582-0.853-0.363-2.017,0.49-2.597
	c5.768-3.936,13.902-4.068,19.793-0.351c0.872,0.555,1.132,1.71,0.58,2.582c-0.551,0.877-1.701,1.135-2.582,0.585
	c-4.668-2.958-11.115-2.836-15.681,0.273L1114.688,1236.555z"/>
</svg>
